<svg width="224" height="40" viewBox="0 0 224 40" fill="none" xmlns="http://www.w3.org/2000/svg">
<rect width="224" height="40" rx="20" fill="#739073"/>
<path d="M41.8906 27.2969H40.6562V13.375H41.8906V27.2969ZM34.5 14.4531C35.1875 14.4531 35.7995 14.6536 36.3359 15.0547C36.8724 15.4557 37.2917 16.0208 37.5938 16.75C37.8958 17.4792 38.0469 18.3281 38.0469 19.2969C38.0469 20.2656 37.8958 21.1146 37.5938 21.8438C37.2917 22.5729 36.8724 23.1354 36.3359 23.5312C35.7995 23.9271 35.1875 24.125 34.5 24.125C33.8125 24.125 33.2005 23.9271 32.6641 23.5312C32.1276 23.1354 31.7083 22.5729 31.4062 21.8438C31.1042 21.1146 30.9531 20.2656 30.9531 19.2969C30.9531 18.3281 31.1042 17.4792 31.4062 16.75C31.7083 16.0208 32.1276 15.4557 32.6641 15.0547C33.2005 14.6536 33.8125 14.4531 34.5 14.4531ZM34.5 15.5469C34.0417 15.5469 33.6328 15.7031 33.2734 16.0156C32.9141 16.3281 32.6354 16.7656 32.4375 17.3281C32.2396 17.8906 32.1406 18.5469 32.1406 19.2969C32.1406 20.0365 32.2396 20.6901 32.4375 21.2578C32.6354 21.8255 32.9141 22.263 33.2734 22.5703C33.6328 22.8776 34.0417 23.0312 34.5 23.0312C34.9583 23.0312 35.3672 22.8776 35.7266 22.5703C36.0859 22.263 36.3646 21.8255 36.5625 21.2578C36.7604 20.6901 36.8594 20.0365 36.8594 19.2969C36.8594 18.5469 36.7604 17.8906 36.5625 17.3281C36.3646 16.7656 36.0885 16.3281 35.7344 16.0156C35.3802 15.7031 34.9688 15.5469 34.5 15.5469ZM48.625 20.7188H47.4062V18.0938H48.625V20.7188ZM53.7812 20.7188H52.5625V18.0938H53.7812V20.7188ZM56.9219 21.2656H44.2656V20.25H56.9219V21.2656ZM50.5938 22.3281C51.5938 22.3281 52.4505 22.4219 53.1641 22.6094C53.8776 22.7969 54.4245 23.0729 54.8047 23.4375C55.1849 23.8021 55.375 24.25 55.375 24.7812C55.375 25.3021 55.1849 25.7448 54.8047 26.1094C54.4245 26.474 53.8776 26.7526 53.1641 26.9453C52.4505 27.138 51.5938 27.2344 50.5938 27.2344C49.5938 27.2344 48.7344 27.138 48.0156 26.9453C47.2969 26.7526 46.7474 26.474 46.3672 26.1094C45.987 25.7448 45.7969 25.3021 45.7969 24.7812C45.7969 24.25 45.987 23.8021 46.3672 23.4375C46.7474 23.0729 47.2969 22.7969 48.0156 22.6094C48.7344 22.4219 49.5938 22.3281 50.5938 22.3281ZM50.5938 23.2656C49.8542 23.2656 49.2188 23.3255 48.6875 23.4453C48.1562 23.5651 47.75 23.7396 47.4688 23.9688C47.1875 24.1979 47.0469 24.4688 47.0469 24.7812C47.0469 25.0938 47.1875 25.362 47.4688 25.5859C47.75 25.8099 48.1562 25.9818 48.6875 26.1016C49.2188 26.2214 49.8542 26.2812 50.5938 26.2812C51.3229 26.2812 51.9557 26.2214 52.4922 26.1016C53.0286 25.9818 53.4375 25.8099 53.7188 25.5859C54 25.362 54.1406 25.0938 54.1406 24.7812C54.1406 24.4688 54 24.1979 53.7188 23.9688C53.4375 23.7396 53.0312 23.5651 52.5 23.4453C51.9688 23.3255 51.3333 23.2656 50.5938 23.2656ZM50.5938 13.6406C51.6042 13.6406 52.4766 13.7422 53.2109 13.9453C53.9453 14.1484 54.5104 14.4427 54.9062 14.8281C55.3021 15.2135 55.5 15.6771 55.5 16.2188C55.5 16.75 55.3021 17.2083 54.9062 17.5938C54.5104 17.9792 53.9453 18.2734 53.2109 18.4766C52.4766 18.6797 51.6042 18.7812 50.5938 18.7812C49.5833 18.7812 48.7083 18.6797 47.9688 18.4766C47.2292 18.2734 46.6615 17.9792 46.2656 17.5938C45.8698 17.2083 45.6719 16.75 45.6719 16.2188C45.6719 15.6771 45.8698 15.2135 46.2656 14.8281C46.6615 14.4427 47.2292 14.1484 47.9688 13.9453C48.7083 13.7422 49.5833 13.6406 50.5938 13.6406ZM50.5938 14.6094C49.8438 14.6094 49.1927 14.6745 48.6406 14.8047C48.0885 14.9349 47.6667 15.1198 47.375 15.3594C47.0833 15.599 46.9375 15.8854 46.9375 16.2188C46.9375 16.5521 47.0833 16.8385 47.375 17.0781C47.6667 17.3177 48.0885 17.5026 48.6406 17.6328C49.1927 17.763 49.8438 17.8281 50.5938 17.8281C51.3438 17.8281 51.9922 17.763 52.5391 17.6328C53.0859 17.5026 53.5078 17.3177 53.8047 17.0781C54.1016 16.8385 54.25 16.5521 54.25 16.2188C54.25 15.8854 54.1016 15.599 53.8047 15.3594C53.5078 15.1198 53.0859 14.9349 52.5391 14.8047C51.9922 14.6745 51.3438 14.6094 50.5938 14.6094ZM75.0312 16.5312H72.6094V15.5312H75.0312V16.5312ZM75.0312 19.5312H72.6094V18.4844H75.0312V19.5312ZM72.9688 21.6406H71.75V13.375H72.9688V21.6406ZM72.9688 27.2656H71.75V23.2969H63.875V22.2812H72.9688V27.2656ZM66.0156 14.2188C66.7135 14.2083 67.3385 14.3411 67.8906 14.6172C68.4427 14.8932 68.8776 15.2812 69.1953 15.7812C69.513 16.2812 69.6719 16.849 69.6719 17.4844C69.6719 18.1198 69.513 18.6875 69.1953 19.1875C68.8776 19.6875 68.4427 20.0781 67.8906 20.3594C67.3385 20.6406 66.7135 20.7812 66.0156 20.7812C65.3177 20.7812 64.6927 20.6406 64.1406 20.3594C63.5885 20.0781 63.1562 19.6875 62.8438 19.1875C62.5312 18.6875 62.375 18.1198 62.375 17.4844C62.375 16.849 62.5312 16.2839 62.8438 15.7891C63.1562 15.2943 63.5885 14.9062 64.1406 14.625C64.6927 14.3438 65.3177 14.2083 66.0156 14.2188ZM66.0156 15.2656C65.5573 15.2656 65.1406 15.3594 64.7656 15.5469C64.3906 15.7344 64.099 15.9948 63.8906 16.3281C63.6823 16.6615 63.5781 17.0469 63.5781 17.4844C63.5781 17.9219 63.6823 18.3099 63.8906 18.6484C64.099 18.987 64.3906 19.25 64.7656 19.4375C65.1406 19.625 65.5573 19.7188 66.0156 19.7188C66.4844 19.7188 66.9062 19.625 67.2812 19.4375C67.6562 19.25 67.9479 18.987 68.1562 18.6484C68.3646 18.3099 68.4688 17.9219 68.4688 17.4844C68.4688 17.0469 68.3646 16.6615 68.1562 16.3281C67.9479 15.9948 67.6562 15.7344 67.2812 15.5469C66.9062 15.3594 66.4844 15.2656 66.0156 15.2656ZM82.9219 15.4844H76.7188V14.4531H82.9219V15.4844ZM80.0625 21.0156H78.8438V17.5312H80.0625V21.0156ZM83.6406 15.375C83.6302 16.0625 83.6042 16.7005 83.5625 17.2891C83.5208 17.8776 83.4271 18.5469 83.2812 19.2969L82.0469 19.2031C82.2031 18.4323 82.3047 17.7604 82.3516 17.1875C82.3984 16.6146 82.4271 16 82.4375 15.3438V15.1875V14.4531H83.6406V15.1875V15.375ZM86.8281 23.8281H85.5781V13.375H86.8281V23.8281ZM88.8594 18.9531H86.2656V17.9062H88.8594V18.9531ZM87.2812 26.9688H78V25.9375H87.2812V26.9688ZM79.2344 26.2656H78V22.8906H79.2344V26.2656ZM75.8594 20.5938C77.6302 20.5833 79.2214 20.5495 80.6328 20.4922C82.0443 20.4349 83.3802 20.3177 84.6406 20.1406L84.7188 21.0469C83.4271 21.2656 82.0469 21.4141 80.5781 21.4922C79.1094 21.5703 77.5781 21.6094 75.9844 21.6094L75.8594 20.5938ZM96.0938 13.625C97.125 13.625 98.0078 13.7161 98.7422 13.8984C99.4766 14.0807 100.036 14.3516 100.422 14.7109C100.807 15.0703 101 15.5052 101 16.0156C101 16.5365 100.807 16.9766 100.422 17.3359C100.036 17.6953 99.4766 17.9688 98.7422 18.1562C98.0078 18.3438 97.125 18.4427 96.0938 18.4531C95.0625 18.4427 94.1797 18.3438 93.4453 18.1562C92.7109 17.9688 92.1484 17.6953 91.7578 17.3359C91.3672 16.9766 91.1719 16.5365 91.1719 16.0156C91.1719 15.5052 91.3672 15.0703 91.7578 14.7109C92.1484 14.3516 92.7109 14.0807 93.4453 13.8984C94.1797 13.7161 95.0625 13.625 96.0938 13.625ZM96.0938 14.5469C95.3333 14.5469 94.6797 14.6042 94.1328 14.7188C93.5859 14.8333 93.1693 15.0026 92.8828 15.2266C92.5964 15.4505 92.4531 15.7135 92.4531 16.0156C92.4531 16.3385 92.5938 16.612 92.875 16.8359C93.1562 17.0599 93.5703 17.2292 94.1172 17.3438C94.6641 17.4583 95.3229 17.5156 96.0938 17.5156C96.8646 17.5156 97.5234 17.4583 98.0703 17.3438C98.6172 17.2292 99.0339 17.0573 99.3203 16.8281C99.6068 16.599 99.75 16.3281 99.75 16.0156C99.75 15.7135 99.6042 15.4531 99.3125 15.2344C99.0208 15.0156 98.6016 14.8464 98.0547 14.7266C97.5078 14.6068 96.8542 14.5469 96.0938 14.5469ZM102.422 20.3906H89.7656V19.3906H102.422V20.3906ZM100.797 24.7031H92.5469V26.3906H91.3281V23.7969H99.5938V22.5312H91.2969V21.5938H100.797V24.7031ZM101.219 27.1094H91.3281V26.1406H101.219V27.1094ZM112.531 21.6719H111.312V19.9062H112.531V21.6719ZM118.453 22.7031H117.219V13.3906H118.453V22.7031ZM120.531 18.625H117.938V17.5938H120.531V18.625ZM107.766 21.2812C109.422 21.2812 110.956 21.2526 112.367 21.1953C113.779 21.138 115.109 21.0208 116.359 20.8438L116.469 21.7344C115.146 21.9635 113.781 22.112 112.375 22.1797C110.969 22.2474 109.406 22.2812 107.688 22.2812L107.547 21.2812H107.766ZM118.453 27.2656H117.219V24.375H109.25V23.3906H118.453V27.2656ZM115.938 15.5938H107.891V14.6562H115.938V15.5938ZM111.906 16.125C112.562 16.125 113.135 16.2083 113.625 16.375C114.115 16.5417 114.495 16.7786 114.766 17.0859C115.036 17.3932 115.172 17.7552 115.172 18.1719C115.172 18.5885 115.036 18.9531 114.766 19.2656C114.495 19.5781 114.115 19.8203 113.625 19.9922C113.135 20.1641 112.562 20.25 111.906 20.25C111.26 20.25 110.693 20.1641 110.203 19.9922C109.714 19.8203 109.333 19.5781 109.062 19.2656C108.792 18.9531 108.656 18.5885 108.656 18.1719C108.656 17.7552 108.792 17.3932 109.062 17.0859C109.333 16.7786 109.714 16.5417 110.203 16.375C110.693 16.2083 111.26 16.125 111.906 16.125ZM111.906 17C111.49 16.9896 111.125 17.0312 110.812 17.125C110.5 17.2188 110.258 17.3542 110.086 17.5312C109.914 17.7083 109.828 17.9219 109.828 18.1719C109.828 18.4115 109.914 18.6224 110.086 18.8047C110.258 18.987 110.5 19.1276 110.812 19.2266C111.125 19.3255 111.49 19.375 111.906 19.375C112.333 19.375 112.703 19.3255 113.016 19.2266C113.328 19.1276 113.57 18.987 113.742 18.8047C113.914 18.6224 114 18.4115 114 18.1719C114 17.9219 113.914 17.7083 113.742 17.5312C113.57 17.3542 113.328 17.2188 113.016 17.125C112.703 17.0312 112.333 16.9896 111.906 17ZM112.531 15.1406H111.312V13.2656H112.531V15.1406ZM132.906 23.5469H131.688V13.3906H132.906V23.5469ZM133.344 26.9688H123.938V25.9375H133.344V26.9688ZM125.156 26.2812H123.938V22.5156H125.156V26.2812ZM125.406 14.3594C126.094 14.3594 126.716 14.5026 127.273 14.7891C127.831 15.0755 128.266 15.4792 128.578 16C128.891 16.5208 129.047 17.1094 129.047 17.7656C129.047 18.4323 128.891 19.0234 128.578 19.5391C128.266 20.0547 127.831 20.4583 127.273 20.75C126.716 21.0417 126.094 21.1875 125.406 21.1875C124.719 21.1875 124.099 21.0417 123.547 20.75C122.995 20.4583 122.56 20.0547 122.242 19.5391C121.924 19.0234 121.766 18.4323 121.766 17.7656C121.766 17.1094 121.924 16.5208 122.242 16C122.56 15.4792 122.995 15.0755 123.547 14.7891C124.099 14.5026 124.719 14.3594 125.406 14.3594ZM125.406 15.4375C124.948 15.4375 124.531 15.5365 124.156 15.7344C123.781 15.9323 123.49 16.2083 123.281 16.5625C123.073 16.9167 122.969 17.3177 122.969 17.7656C122.969 18.2135 123.073 18.6172 123.281 18.9766C123.49 19.3359 123.781 19.6146 124.156 19.8125C124.531 20.0104 124.948 20.1094 125.406 20.1094C125.865 20.1094 126.279 20.0104 126.648 19.8125C127.018 19.6146 127.31 19.3359 127.523 18.9766C127.737 18.6172 127.844 18.2135 127.844 17.7656C127.844 17.3177 127.737 16.9167 127.523 16.5625C127.31 16.2083 127.018 15.9323 126.648 15.7344C126.279 15.5365 125.865 15.4375 125.406 15.4375ZM142.203 16.7812H135.234V15.7812H142.203V16.7812ZM138.719 17.7188C139.302 17.7188 139.82 17.8516 140.273 18.1172C140.727 18.3828 141.083 18.7552 141.344 19.2344C141.604 19.7135 141.734 20.2604 141.734 20.875C141.734 21.4896 141.604 22.0365 141.344 22.5156C141.083 22.9948 140.727 23.3724 140.273 23.6484C139.82 23.9245 139.302 24.0625 138.719 24.0625C138.146 24.0625 137.633 23.9245 137.18 23.6484C136.727 23.3724 136.372 22.9922 136.117 22.5078C135.862 22.0234 135.734 21.4792 135.734 20.875C135.734 20.2708 135.862 19.7266 136.117 19.2422C136.372 18.7578 136.727 18.3828 137.18 18.1172C137.633 17.8516 138.146 17.7188 138.719 17.7188ZM138.719 18.75C138.365 18.75 138.042 18.8438 137.75 19.0312C137.458 19.2188 137.232 19.4714 137.07 19.7891C136.909 20.1068 136.828 20.4688 136.828 20.875C136.828 21.2812 136.911 21.6458 137.078 21.9688C137.245 22.2917 137.471 22.5417 137.758 22.7188C138.044 22.8958 138.365 22.9844 138.719 22.9844C139.083 22.9844 139.411 22.8958 139.703 22.7188C139.995 22.5417 140.224 22.2917 140.391 21.9688C140.557 21.6458 140.641 21.2812 140.641 20.875C140.641 20.4688 140.557 20.1068 140.391 19.7891C140.224 19.4714 139.995 19.2188 139.703 19.0312C139.411 18.8438 139.083 18.75 138.719 18.75ZM147.094 27.2656H145.922V13.375H147.094V27.2656ZM146.312 20.25H143.656V19.2344H146.312V20.25ZM144.078 26.5781H142.922V13.7188H144.078V26.5781ZM139.344 16.3906H138.125V13.7969H139.344V16.3906ZM155.812 15.3438C155.812 16.1354 155.552 16.8646 155.031 17.5312C154.51 18.1979 153.833 18.7526 153 19.1953C152.167 19.638 151.276 19.9427 150.328 20.1094L149.844 19.1406C150.656 19.0156 151.44 18.7682 152.195 18.3984C152.951 18.0286 153.562 17.5755 154.031 17.0391C154.5 16.5026 154.734 15.9375 154.734 15.3438V14.75H155.812V15.3438ZM156.109 15.3438C156.109 15.9375 156.344 16.5026 156.812 17.0391C157.281 17.5755 157.893 18.0286 158.648 18.3984C159.404 18.7682 160.188 19.0156 161 19.1406L160.547 20.1094C159.589 19.9427 158.69 19.6406 157.852 19.2031C157.013 18.7656 156.336 18.2109 155.82 17.5391C155.305 16.8672 155.047 16.1354 155.047 15.3438V14.75H156.109V15.3438ZM156 27.2656H154.797V21.9531H156V27.2656ZM161.75 22.3125H149.094V21.2969H161.75V22.3125ZM160.547 15.25H150.281V14.25H160.547V15.25ZM171.172 19.4062H168.438V18.3594H171.172V19.4062ZM166.828 17.375C166.828 18.3229 166.695 19.25 166.43 20.1562C166.164 21.0625 165.784 21.8724 165.289 22.5859C164.794 23.2995 164.214 23.8594 163.547 24.2656L162.766 23.3438C163.391 22.9792 163.938 22.4792 164.406 21.8438C164.875 21.2083 165.234 20.5026 165.484 19.7266C165.734 18.9505 165.859 18.1667 165.859 17.375V14.6875H166.828V17.375ZM167.047 17.3281C167.047 18.0677 167.164 18.8073 167.398 19.5469C167.633 20.2865 167.971 20.9609 168.414 21.5703C168.857 22.1797 169.375 22.6615 169.969 23.0156L169.266 23.9688C168.609 23.5729 168.044 23.0234 167.57 22.3203C167.096 21.6172 166.734 20.8333 166.484 19.9688C166.234 19.1042 166.109 18.224 166.109 17.3281V14.6875H167.047V17.3281ZM174.828 27.2656H173.641V13.375H174.828V27.2656ZM171.953 26.5625H170.797V13.6719H171.953V26.5625ZM181.109 24.7031H179.906V20.5469H181.109V24.7031ZM186.312 24.7031H185.078V20.5469H186.312V24.7031ZM189.469 25.4844H176.75V24.4531H189.469V25.4844ZM183.078 14.25C184.068 14.25 184.945 14.3984 185.711 14.6953C186.477 14.9922 187.076 15.4115 187.508 15.9531C187.94 16.4948 188.156 17.1198 188.156 17.8281C188.156 18.5365 187.94 19.1589 187.508 19.6953C187.076 20.2318 186.477 20.6484 185.711 20.9453C184.945 21.2422 184.068 21.3906 183.078 21.3906C182.099 21.3906 181.224 21.2422 180.453 20.9453C179.682 20.6484 179.081 20.2318 178.648 19.6953C178.216 19.1589 178 18.5365 178 17.8281C178 17.1198 178.216 16.4948 178.648 15.9531C179.081 15.4115 179.682 14.9922 180.453 14.6953C181.224 14.3984 182.099 14.25 183.078 14.25ZM183.078 15.2656C182.328 15.2552 181.659 15.3568 181.07 15.5703C180.482 15.7839 180.021 16.0859 179.688 16.4766C179.354 16.8672 179.188 17.3177 179.188 17.8281C179.188 18.3385 179.354 18.7891 179.688 19.1797C180.021 19.5703 180.482 19.875 181.07 20.0938C181.659 20.3125 182.328 20.4219 183.078 20.4219C183.828 20.4219 184.497 20.3125 185.086 20.0938C185.674 19.875 186.135 19.5703 186.469 19.1797C186.802 18.7891 186.969 18.3385 186.969 17.8281C186.969 17.3177 186.802 16.8672 186.469 16.4766C186.135 16.0859 185.674 15.7839 185.086 15.5703C184.497 15.3568 183.828 15.2552 183.078 15.2656ZM192.719 22.8125H191.406L191.297 14.6875H192.828L192.719 22.8125ZM192.062 26.0938C191.885 26.0938 191.719 26.0469 191.562 25.9531C191.406 25.8594 191.284 25.7344 191.195 25.5781C191.107 25.4219 191.062 25.2552 191.062 25.0781C191.062 24.901 191.107 24.7344 191.195 24.5781C191.284 24.4219 191.406 24.2995 191.562 24.2109C191.719 24.1224 191.885 24.0781 192.062 24.0781C192.24 24.0781 192.406 24.1224 192.562 24.2109C192.719 24.2995 192.841 24.4219 192.93 24.5781C193.018 24.7344 193.062 24.901 193.062 25.0781C193.062 25.2552 193.018 25.4219 192.93 25.5781C192.841 25.7344 192.719 25.8594 192.562 25.9531C192.406 26.0469 192.24 26.0938 192.062 26.0938Z" fill="white"/>
</svg>
