<svg width="82" height="17" viewBox="0 0 82 17" fill="none" xmlns="http://www.w3.org/2000/svg">
<path d="M6.27344 5.5957C6.25586 8.10938 8.06641 10.8691 10.334 11.9414L9.54297 13.0312C7.78516 12.1787 6.2998 10.3154 5.60547 8.19727C4.88477 10.5 3.31152 12.5215 1.5625 13.418L0.71875 12.3281C2.96875 11.2383 4.90234 8.26758 4.91992 5.5957V3.55664H1.28125V2.41406H9.78906V3.55664H6.27344V5.5957ZM13.0762 0.796875V7.125H15.6953V8.30273H13.0762V16.4238H11.7051V0.796875H13.0762ZM30.7949 8.53125V9.63867H16.5391V8.53125H22.9902V6.70312H18.3496V1.53516H29.0195V2.64258H19.7031V5.57812H29.125V6.70312H24.3262V8.53125H30.7949ZM23.6582 10.7812C27.0156 10.7812 29.0195 11.8008 29.0371 13.5938C29.0195 15.4043 27.0156 16.4062 23.6582 16.4238C20.2832 16.4062 18.2617 15.4043 18.2617 13.5938C18.2617 11.8008 20.2832 10.7812 23.6582 10.7812ZM23.6582 11.8711C21.1445 11.8711 19.6504 12.5215 19.668 13.5938C19.6504 14.6836 21.1445 15.3164 23.6582 15.3164C26.1367 15.3164 27.6484 14.6836 27.6484 13.5938C27.6484 12.5215 26.1367 11.8711 23.6582 11.8711ZM50.9219 13.3301V14.4902H36.6133V13.3301H43.0469V10.377H38.4062V5.56055H47.7578V3.09961H38.3711V1.95703H49.1113V6.68555H39.7773V9.23438H49.4805V10.377H44.4004V13.3301H50.9219ZM64.4922 2.4668V4.03125C64.4922 6 64.4922 8.23242 63.9121 11.625L62.5059 11.4844C63.1387 8.28516 63.1387 5.94727 63.1387 4.03125V3.60938H53.7168V2.4668H64.4922ZM66.4082 12.9785V14.1211H52.1699V12.9785H66.4082ZM80.6289 0.814453V12.2402H79.2578V0.814453H80.6289ZM81.1211 14.9297V16.0898H70.5391V11.0801H71.9102V14.9297H81.1211ZM72.1914 1.9043C74.5293 1.9043 76.2871 3.48633 76.2871 5.73633C76.2871 8.02148 74.5293 9.58594 72.1914 9.58594C69.8535 9.58594 68.0957 8.02148 68.0957 5.73633C68.0957 3.48633 69.8535 1.9043 72.1914 1.9043ZM72.1914 3.11719C70.6094 3.11719 69.4316 4.20703 69.4492 5.73633C69.4316 7.30078 70.6094 8.37305 72.1914 8.37305C73.7383 8.37305 74.9336 7.30078 74.9336 5.73633C74.9336 4.20703 73.7383 3.11719 72.1914 3.11719Z" fill="white"/>
</svg>
