<svg width="20" height="26" viewBox="0 0 20 26" fill="none" xmlns="http://www.w3.org/2000/svg">
<path d="M18.5605 5.22135H3.67388C3.47539 5.21854 3.27953 5.17556 3.09811 5.09499C2.91669 5.01443 2.75346 4.89795 2.61827 4.75259C2.48309 4.60723 2.37874 4.43599 2.31153 4.24921C2.24432 4.06243 2.21564 3.86397 2.22721 3.6658C2.22625 3.27143 2.37511 2.89142 2.64368 2.60263C2.91225 2.31384 3.28048 2.13785 3.67388 2.11024H18.5605C18.7668 2.11024 18.9647 2.0283 19.1105 1.88244C19.2564 1.73658 19.3383 1.53874 19.3383 1.33247C19.3383 1.12619 19.2564 0.928355 19.1105 0.782493C18.9647 0.636632 18.7668 0.554688 18.5605 0.554688H3.67388C2.86778 0.582918 2.10415 0.923116 1.54405 1.50353C0.983953 2.08395 0.671165 2.8592 0.671659 3.6658C0.664135 3.79272 0.664135 3.91998 0.671659 4.04691C0.664165 4.10891 0.664165 4.17158 0.671659 4.23358V22.3325C0.671165 23.1391 0.983953 23.9143 1.54405 24.4947C2.10415 25.0751 2.86778 25.4153 3.67388 25.4436H18.5605C18.7668 25.4436 18.9647 25.3616 19.1105 25.2158C19.2564 25.0699 19.3383 24.8721 19.3383 24.6658V6.05358C19.3388 5.84197 19.2586 5.63814 19.1141 5.48355C18.9696 5.32895 18.7717 5.2352 18.5605 5.22135Z" fill="#3A4E39"/>
</svg>
