<svg width="406" height="404" viewBox="0 0 406 404" fill="none" xmlns="http://www.w3.org/2000/svg">
<path d="M89.2757 10.0085C47.2608 11.0057 28.7757 99.0085 28.7757 99.0085C28.7757 99.0085 -13.4696 238.172 28.7757 308.009C98.6118 423.455 300.301 420.848 374.276 308.009C422.771 234.034 374.276 81.5085 374.276 81.5085C374.276 81.5085 352.599 10.7564 316.776 10.0085C280.332 9.24772 256.776 81.5085 256.776 81.5085H156.776C156.776 81.5085 127.665 9.09739 89.2757 10.0085Z" fill="#D9D9D9" stroke="black" stroke-width="19"/>
<path d="M218.999 259.999C225 247.999 175.999 245.499 178.499 259.999C180.998 274.499 201.499 277.499 201.499 277.499C201.499 277.499 212.998 271.999 218.999 259.999Z" fill="black" stroke="black" stroke-width="10"/>
<path d="M339.5 89.9992H291.5C291.5 89.9992 298.503 48.9781 317 49.9992C334.895 50.9871 339.5 89.9992 339.5 89.9992Z" fill="#FCDFFF" stroke="black" stroke-width="10"/>
<path d="M114 87.0188H66C66 87.0188 73.0029 45.9976 91.5 47.0188C109.395 48.0067 114 87.0188 114 87.0188Z" fill="#FCDFFF" stroke="black" stroke-width="10"/>
<path d="M85 188.5L120.5 193.5H85L129.5 193L87.5 197.5H129L81.5 201H125.5L85 197.5V197.5C89.5919 197.865 89.5874 204.583 85 205V205H128" stroke="black" stroke-width="4"/>
<path d="M256.5 189L292 194H256.5L301 193.5L259 198H300.5L253 201.5H297L256.5 198V198C261.092 198.365 261.087 205.083 256.5 205.5V205.5H299.5" stroke="black" stroke-width="4"/>
<path d="M183 335L201.5 308L224 335" stroke="black" stroke-width="10" stroke-linecap="round"/>
<path d="M97.3885 211.309C97.2063 211.331 95.7593 213.266 95.7014 213.526C95.3744 214.998 95 216.155 95 217.792C95 220.065 97.5997 221.549 99.1703 222.834C101.371 224.634 104.213 225.511 104.213 229.051C104.213 231.8 102.625 233.028 100.801 234.852C98.7141 236.939 93.4485 242.722 96.0995 246.036C96.7981 246.91 97.4687 248.548 98.5637 248.861C99.3161 249.076 100.314 249.909 100.876 250.472C102.373 251.968 102.848 253.593 102.848 255.666C102.848 257.94 101.757 259.65 99.7769 260.86C98.4394 261.677 95.8423 266.273 97.1231 267.874C98.5572 269.666 100.291 270.843 102.09 272.461C104.145 274.311 104.213 274.894 104.213 277.844C104.213 279.709 102.85 281.452 101.142 282.356C99.5227 283.213 98.7347 285.992 99.5115 287.74C99.9875 288.811 100.202 289.612 100.801 290.659C101.281 291.5 102.108 292.051 102.582 292.858C103.674 294.713 105.689 295.594 104.895 297.976" stroke="#7CB8FE" stroke-width="10" stroke-linecap="round"/>
<path d="M116.33 211C116.148 211.023 114.701 212.957 114.643 213.218C114.316 214.689 113.941 215.846 113.941 217.483C113.941 219.757 116.541 221.24 118.112 222.525C120.312 224.326 123.154 225.203 123.154 228.743C123.154 231.492 121.566 232.719 119.742 234.543C117.655 236.63 112.39 242.414 115.041 245.728C115.74 246.601 116.41 248.239 117.505 248.552C118.257 248.767 119.255 249.601 119.818 250.163C121.314 251.66 121.789 253.285 121.789 255.357C121.789 257.631 120.699 259.341 118.718 260.551C117.381 261.369 114.784 265.964 116.064 267.565C117.499 269.358 119.233 270.534 121.031 272.152C123.087 274.002 123.154 274.585 123.154 277.536C123.154 279.4 121.791 281.143 120.083 282.047C118.464 282.905 117.676 285.683 118.453 287.431C118.929 288.502 119.144 289.303 119.742 290.35C120.223 291.192 121.049 291.742 121.524 292.549C122.615 294.404 124.631 295.285 123.836 297.667" stroke="#7CB8FE" stroke-width="10" stroke-linecap="round"/>
<path d="M269.388 211.309C269.206 211.331 267.759 213.266 267.701 213.526C267.374 214.998 267 216.155 267 217.792C267 220.065 269.6 221.549 271.17 222.834C273.371 224.634 276.213 225.511 276.213 229.051C276.213 231.8 274.625 233.028 272.801 234.852C270.714 236.939 265.448 242.722 268.099 246.036C268.798 246.91 269.469 248.548 270.564 248.861C271.316 249.076 272.314 249.909 272.876 250.472C274.373 251.968 274.848 253.593 274.848 255.666C274.848 257.94 273.757 259.65 271.777 260.86C270.439 261.677 267.842 266.273 269.123 267.874C270.557 269.666 272.291 270.843 274.09 272.461C276.145 274.311 276.213 274.894 276.213 277.844C276.213 279.709 274.85 281.452 273.142 282.356C271.523 283.213 270.735 285.992 271.512 287.74C271.988 288.811 272.202 289.612 272.801 290.659C273.281 291.5 274.108 292.051 274.582 292.858C275.674 294.713 277.689 295.594 276.895 297.976" stroke="#7CB8FE" stroke-width="10" stroke-linecap="round"/>
<path d="M288.33 211C288.148 211.023 286.701 212.957 286.643 213.218C286.316 214.689 285.941 215.846 285.941 217.483C285.941 219.757 288.541 221.24 290.112 222.525C292.312 224.326 295.154 225.203 295.154 228.743C295.154 231.492 293.566 232.719 291.742 234.543C289.655 236.63 284.39 242.414 287.041 245.728C287.74 246.601 288.41 248.239 289.505 248.552C290.257 248.767 291.255 249.601 291.818 250.163C293.314 251.66 293.789 253.285 293.789 255.357C293.789 257.631 292.699 259.341 290.718 260.551C289.381 261.369 286.784 265.964 288.064 267.565C289.499 269.358 291.233 270.534 293.031 272.152C295.087 274.002 295.154 274.585 295.154 277.536C295.154 279.4 293.791 281.143 292.083 282.047C290.464 282.905 289.676 285.683 290.453 287.431C290.929 288.502 291.144 289.303 291.742 290.35C292.223 291.192 293.049 291.742 293.524 292.549C294.615 294.404 296.631 295.285 295.836 297.667" stroke="#7CB8FE" stroke-width="10" stroke-linecap="round"/>
</svg>
