<svg width="501" height="504" viewBox="0 0 501 504" fill="none" xmlns="http://www.w3.org/2000/svg">
<path d="M89.2757 110.009C47.2608 111.006 28.7757 199.009 28.7757 199.009C28.7757 199.009 -13.4696 338.172 28.7757 408.009C98.6118 523.455 300.301 520.848 374.276 408.009C422.771 334.034 374.276 181.509 374.276 181.509C374.276 181.509 352.599 110.756 316.776 110.009C280.332 109.248 256.776 181.509 256.776 181.509H156.776C156.776 181.509 127.665 109.097 89.2757 110.009Z" fill="#D9D9D9" stroke="black" stroke-width="19"/>
<path d="M218.999 359.999C225 347.999 175.999 345.499 178.499 359.999C180.998 374.499 201.499 377.499 201.499 377.499C201.499 377.499 212.998 371.999 218.999 359.999Z" fill="black" stroke="black" stroke-width="10"/>
<path d="M339.5 189.999H291.5C291.5 189.999 298.503 148.978 317 149.999C334.895 150.987 339.5 189.999 339.5 189.999Z" fill="#FCDFFF" stroke="black" stroke-width="10"/>
<path d="M114 187.019H66C66 187.019 73.0029 145.998 91.5 147.019C109.395 148.007 114 187.019 114 187.019Z" fill="#FCDFFF" stroke="black" stroke-width="10"/>
<path d="M191.847 423.423C208.37 425.125 231.651 413.579 231.651 413.579" stroke="black" stroke-width="10" stroke-linecap="round"/>
<circle cx="103" cy="296" r="13" fill="black"/>
<circle cx="302" cy="296" r="13" fill="black"/>
<path d="M368 55L385.25 92.5M402.5 130L385.25 92.5M385.25 92.5L425 72M425 72L409 28.5M425 72L447 115" stroke="#5C846D" stroke-width="30" stroke-linecap="round"/>
<path d="M456.5 15L486 78" stroke="#5C846D" stroke-width="30" stroke-linecap="round"/>
</svg>
