<svg width="150" height="139" viewBox="0 0 150 139" fill="none" xmlns="http://www.w3.org/2000/svg">
<g clip-path="url(#clip0_1292_3435)">
<path d="M78 58C80.3102 53.7774 80.8012 48.5866 79.3284 44L85.8837 45.507C86.6995 50.8362 83.1331 56.4857 78 58Z" fill="#444444"/>
<path d="M73.4341 112.151C74.853 111.999 76.2335 111.506 77.4299 110.664L88.1825 103.175C94.8396 98.5384 91.1352 88.5535 82.8752 88.8655L60.7718 89.7073C52.5118 90.0193 49.6741 100.258 56.6993 104.373L68.0501 111.019C69.6991 111.985 71.6011 112.355 73.4341 112.151ZM57.7654 43.5201L49.0222 44.5796C52.2664 48.9915 54.2451 54.2233 54.7053 59.5786C58.586 55.2247 59.7901 48.8826 57.7654 43.5201ZM63.3871 43.3097C65.7263 47.7796 66.7847 52.8664 65.711 57.779C70.9415 55.2465 74.155 49.1874 73.273 43.5201L63.3871 43.3097ZM79.1632 44.2385C80.7278 48.8101 80.2062 53.9839 77.752 58.1926C83.205 56.6833 86.9937 51.0523 86.1271 45.7406L79.1632 44.2385ZM46.4606 44.3764C62.1216 41.5609 79.0865 41.5899 93.5741 47.3443C96.3811 42.0035 98.682 34.9358 99.3569 29C112.709 35.734 121.798 49.4776 122.358 63.7873C129.904 62.5102 137.965 67.626 142.198 73.7286C148.871 83.3361 150.781 95.7809 147.276 106.796C143.771 117.811 134.905 127.187 123.73 131.708C118.017 134.022 111.843 135.096 105.692 135.916C89.7164 138.042 73.4955 138.543 57.4049 137.411C46.4836 136.642 35.3706 135.038 25.7377 130.118C13.643 123.943 4.68508 112.536 1.92407 99.801C-0.783246 87.2836 2.5453 73.7141 10.767 63.5987C11.2885 49.2454 20.7219 35.9444 34.1205 29.1887C34.7877 35.0954 36.5517 40.8788 39.3357 46.205C41.6135 45.356 44.0831 44.8045 46.4606 44.3764ZM99.7327 79.5846C99.7327 77.4657 97.915 75.7459 95.6755 75.7459C93.436 75.7459 91.6184 77.4657 91.6184 79.5846C91.6184 81.7034 93.436 83.4232 95.6755 83.4232C97.915 83.4232 99.7327 81.7034 99.7327 79.5846ZM45.5479 79.5846C45.5479 77.4657 43.7303 75.7459 41.4908 75.7459C39.2513 75.7459 37.4337 77.4657 37.4337 79.5846C37.4337 81.7034 39.2513 83.4232 41.4908 83.4232C43.7303 83.4232 45.5479 81.7034 45.5479 79.5846Z" fill="#ADADAD"/>
<path d="M72.8553 43.2182C73.7345 49.0933 70.531 55.3746 65.3166 58C66.387 52.9072 65.3319 47.6339 63 43L72.8553 43.2182Z" fill="#444444"/>
<path d="M49 45.0556L58.0014 44C60.0859 49.343 58.8462 55.662 54.8509 60C54.3771 54.6643 52.34 49.4514 49 45.0556Z" fill="#444444"/>
<path d="M96 84C98.2091 84 100 82.2091 100 80C100 77.7909 98.2091 76 96 76C93.7909 76 92 77.7909 92 80C92 82.2091 93.7909 84 96 84Z" fill="#231815"/>
<path d="M73.7716 111.947C71.9338 112.147 70.0268 111.782 68.3735 110.832L56.9929 104.284C49.9493 100.23 52.7944 90.1437 61.0761 89.8363L83.2375 89.007C91.5192 88.6997 95.2333 98.5361 88.5587 103.104L77.7779 110.481C76.5784 111.311 75.1942 111.797 73.7716 111.947Z" fill="#231815"/>
<path d="M41 84C43.2091 84 45 82.2091 45 80C45 77.7909 43.2091 76 41 76C38.7909 76 37 77.7909 37 80C37 82.2091 38.7909 84 41 84Z" fill="#231815"/>
<path d="M11 63C11.5285 48.8178 21.089 35.6752 34.6679 29C35.3441 34.8364 37.1319 40.5508 39.9534 45.8136L40 45.8996" stroke="#231815" stroke-width="2.29619" stroke-miterlimit="10"/>
<path d="M32 52.864C33.6921 49.9241 36.5428 48.065 39.7669 46.8104C42.0307 45.9262 44.485 45.3518 46.8479 44.9059C62.4122 41.9736 79.2724 42.0039 93.6705 47.9969C96.9176 49.3497 100.043 51.0048 103 53" stroke="#231815" stroke-width="2.29619" stroke-miterlimit="10"/>
<path d="M123 64C123 64 123 63.92 122.992 63.8836C122.428 49.5343 113.274 35.7526 99.8247 29C99.1449 34.9522 96.8274 42.0395 94 47.395" stroke="#231815" stroke-width="2.29619" stroke-miterlimit="10"/>
<path d="M11.2041 63C11.0584 63.1743 10.9127 63.3486 10.767 63.5302C2.5453 73.655 -0.783246 87.237 1.92407 99.7658C4.68508 112.513 13.643 123.93 25.7377 130.111C35.3706 135.035 46.4836 136.641 57.4049 137.411C73.4955 138.544 89.7164 138.042 105.692 135.914C111.843 135.094 118.017 134.019 123.73 131.702C134.905 127.177 143.771 117.793 147.276 106.767C150.781 95.7421 148.871 83.2858 142.198 73.6695C137.965 67.5612 129.904 62.4407 122.358 63.719C122.15 63.7554 121.951 63.7917 121.744 63.8353" stroke="#231815" stroke-width="2.29619" stroke-miterlimit="10"/>
<path d="M49 45.0556C52.34 49.4514 54.3771 54.6643 54.8509 60C58.8462 55.662 60.0859 49.343 58.0014 44L49 45.0556Z" stroke="#231815" stroke-width="2.29619" stroke-miterlimit="10"/>
<path d="M63 43C65.3319 47.6339 66.387 52.9072 65.3166 58C70.531 55.3746 73.7345 49.0933 72.8553 43.2182L63 43Z" stroke="#231815" stroke-width="2.29619" stroke-miterlimit="10"/>
<path d="M79.3284 44C80.8012 48.5866 80.3102 53.7774 78 58C83.1331 56.4857 86.6995 50.8362 85.8837 45.507L79.3284 44Z" stroke="#231815" stroke-width="2.29619" stroke-miterlimit="10"/>
<path d="M21 55C21.4985 52.5111 22.3293 50.0812 23.4528 47.777C23.9276 46.8021 24.4656 45.8419 25.1223 44.9557C26.5782 43.0059 28.5879 41.4919 30.566 40C30.5581 43.3383 31.7925 46.6765 34 49.3058" stroke="#231815" stroke-width="2.29619" stroke-miterlimit="10"/>
<path d="M100 50.0539C100.953 47.1846 101.905 44.3081 102.858 41.4317C102.906 41.2727 102.978 41.0992 103.146 41.0269C103.33 40.9546 103.538 41.0414 103.714 41.1281C108.734 43.6794 112.032 48.7963 112 54" stroke="#231815" stroke-width="2.29619" stroke-miterlimit="10"/>
<path d="M72.9283 112C73.1587 114.373 72.8296 116.805 72 119" stroke="#231815" stroke-width="2.29619" stroke-miterlimit="10"/>
<path d="M61.0761 89.8363L83.2375 89.007C91.5192 88.6997 95.2333 98.5361 88.5587 103.104L77.7779 110.481C76.5784 111.311 75.1942 111.797 73.7716 111.947C71.9338 112.147 70.0268 111.782 68.3735 110.832L56.9929 104.284C49.9493 100.23 52.7944 90.1437 61.0761 89.8363Z" stroke="#231815" stroke-width="2.29619" stroke-miterlimit="10" stroke-linecap="round"/>
<path d="M58.5 97C59.3284 97 60 96.3284 60 95.5C60 94.6716 59.3284 94 58.5 94C57.6716 94 57 94.6716 57 95.5C57 96.3284 57.6716 97 58.5 97Z" fill="white"/>
<path d="M41.0213 5.90721C35.5297 5.44418 31.3841 7.39756 27 10.6821C29.6458 5.0318 36.1912 1.56637 42.7442 1.0744C49.2895 0.575207 55.7964 2.64434 61.5726 5.58888C66.3643 8.02698 70.8868 11.1669 73.9326 15.4209C76.4554 18.9297 77.886 23.4587 76.3939 27.4522C75.2325 30.5487 72.5405 32.8638 69.5101 34.564C68.9256 34.8968 68.3256 35.2006 67.7257 35.49C65.8182 36.3944 63.7262 37.154 61.6034 36.9732C58.3653 36.691 55.7349 34.2312 54.3504 31.4675C52.966 28.6966 52.566 25.6002 51.9277 22.605C50.5509 16.0937 47.1052 9.27136 41.0213 5.90721Z" fill="#3A7452"/>
<path d="M40.9906 5.89274C40.9906 5.89274 41.0136 5.90721 41.0213 5.90721M41.0213 5.90721C47.1052 9.27136 50.5509 16.0937 51.9277 22.605C52.566 25.6002 52.966 28.6966 54.3504 31.4675C55.7349 34.2312 58.3653 36.691 61.6034 36.9732C63.7262 37.154 65.8182 36.3944 67.7257 35.49C68.3256 35.2006 68.9256 34.8968 69.5101 34.564C72.5405 32.8638 75.2325 30.5487 76.3939 27.4522C77.886 23.4587 76.4554 18.9297 73.9326 15.4209C70.8868 11.1669 66.3643 8.02698 61.5726 5.58888C55.7964 2.64434 49.2895 0.575207 42.7442 1.0744C36.1912 1.56637 29.6458 5.0318 27 10.6821C31.3841 7.39756 35.5297 5.44418 41.0213 5.90721ZM41.0213 5.90721C41.1675 5.91444 41.3136 5.92891 41.4674 5.94338" stroke="#231815" stroke-width="2.29619" stroke-miterlimit="10"/>
<path d="M69 34L69.191 34.4153C70.2863 36.8925 70.2736 39.5301 69.1274 42" stroke="#231815" stroke-width="2.29619" stroke-miterlimit="10"/>
<path d="M31.6554 7.53802C37.8051 3.27116 45.7544 5.33669 51.5211 9.1104C57.2879 12.8841 61.5919 18.0301 64.479 23.8193C66.1179 27.1141 67.2054 30.6377 67.7721 34.2256C67.9866 35.5835 70.1998 35.0046 69.9854 33.6538C68.9056 26.7782 65.8193 20.2743 61.2243 14.821C56.6752 9.42488 50.089 4.27891 42.5992 3.20683C38.4024 2.60647 33.9529 3.2783 30.4914 5.67975C29.3196 6.49453 30.4607 8.35995 31.6478 7.53087L31.6554 7.53802Z" fill="#040000"/>
<path d="M69.7914 17.0447C69.7914 20.3428 68.8859 23.5616 67.1632 26.3907C66.4343 27.5887 68.3411 28.6784 69.0699 27.4804C70.9914 24.3338 72.0073 20.7109 72 17.0447C72 15.6518 69.7914 15.6518 69.7914 17.0447Z" fill="#040000"/>
<path d="M55.768 23.9478C57.3148 24.3687 58.8913 24.6515 60.4973 24.8225C61.9923 24.9803 63.739 25.1776 65.1822 24.6975C65.7447 24.5134 66.1296 24.0333 65.9594 23.4808C65.8113 23.0007 65.16 22.6061 64.5902 22.7903C63.9611 23.0007 63.3394 23.0007 62.6733 22.9876C61.9479 22.9679 61.2152 22.9218 60.4973 22.8495C59.0911 22.7048 57.7071 22.4154 56.3601 22.0471C55.013 21.6788 54.4062 23.5795 55.768 23.9478Z" fill="#040000"/>
<path d="M62.4461 12.3068C62.5012 12.5132 62.5405 12.7128 62.5798 12.9261C62.5326 12.6922 62.5798 12.9536 62.5876 13.0087C62.6034 13.1257 62.6112 13.2495 62.6191 13.3665C62.6505 13.7519 62.6505 14.1441 62.6191 14.5295C62.6191 14.6189 62.6034 14.7084 62.5955 14.7979C62.5955 14.8598 62.5798 14.9148 62.5719 14.9768C62.5876 14.8667 62.5955 14.846 62.5798 14.9217C62.5405 15.1144 62.509 15.3071 62.4618 15.4929C62.3596 15.8989 62.226 16.3049 62.053 16.6971C61.8407 17.2063 62.2967 17.8532 62.8785 17.9702C63.5469 18.1009 64.0972 17.7913 64.3331 17.2476C65.08 15.4998 65.1823 13.5799 64.7262 11.7632C64.5926 11.2333 63.8614 10.8755 63.2717 11.0406C62.6348 11.2195 62.3046 11.7425 62.4461 12.3137V12.3068Z" fill="#040000"/>
<path d="M52.5635 14.1718C54.6188 15.1377 57.0192 15.3012 59.1436 14.4366C59.7035 14.2107 60.1559 13.6499 59.9489 12.9956C59.7725 12.4504 59.1359 11.9363 58.5301 12.1777C58.1083 12.3491 57.6711 12.4815 57.2186 12.5672C57.165 12.575 56.7508 12.6373 57.0422 12.6062C56.9425 12.6139 56.8505 12.6295 56.7508 12.6373C56.5054 12.6607 56.26 12.6685 56.0222 12.6607C55.7922 12.6607 55.5698 12.6295 55.3397 12.6139C55.2553 12.6062 55.2783 12.6139 55.401 12.6217C55.3397 12.6139 55.2707 12.5984 55.2093 12.5906C55.0943 12.5672 54.9869 12.5438 54.8719 12.5205C54.6495 12.4659 54.4271 12.4114 54.2123 12.3335C54.105 12.2946 53.9976 12.2556 53.8902 12.2167C53.7675 12.17 53.7675 12.17 53.8902 12.2167C53.8289 12.1933 53.7675 12.1622 53.7138 12.1388C53.1693 11.8817 52.4484 11.9596 52.1416 12.5594C51.8732 13.0735 51.9729 13.8836 52.5558 14.1562L52.5635 14.1718Z" fill="#040000"/>
<path d="M53.1491 5.49797C53.289 5.71057 53.4142 5.92316 53.5174 6.14904L53.4069 5.90987C53.591 6.31513 53.7162 6.73367 53.7825 7.17215L53.7457 6.9064C53.7972 7.2718 53.8046 7.6372 53.7678 8.00259C53.7457 8.24176 53.9077 8.54072 54.0918 8.70681C54.276 8.87289 54.6 9.01241 54.8725 8.99912C55.145 8.98584 55.4544 8.90611 55.6532 8.70681C55.8521 8.5075 55.9478 8.28162 55.9773 8.00259C56.0951 6.79347 55.749 5.53119 55.0567 4.4948C54.7621 4.04968 54.0476 3.84373 53.5468 4.13605C53.046 4.42836 52.8324 5.01964 53.1491 5.49797Z" fill="#040000"/>
<path d="M55.5916 30.0918C59.6738 32.113 64.2473 33.1237 68.8526 32.9879C70.3825 32.9427 70.3825 30.68 68.8526 30.7253C64.6675 30.8535 60.514 29.9786 56.7964 28.1384C55.441 27.4671 54.2362 29.4205 55.5995 30.0918H55.5916Z" fill="#040000"/>
</g>
<defs>
<clipPath id="clip0_1292_3435">
<rect width="150" height="139" fill="white"/>
</clipPath>
</defs>
</svg>
