<svg width="597" height="421" viewBox="0 0 597 421" fill="none" xmlns="http://www.w3.org/2000/svg">
<path d="M280.276 10.0085C238.261 11.0057 219.776 99.0085 219.776 99.0085C219.776 99.0085 177.53 238.172 219.776 308.009C289.612 423.455 491.301 420.848 565.276 308.009C613.771 234.034 565.276 81.5085 565.276 81.5085C565.276 81.5085 543.599 10.7564 507.776 10.0085C471.332 9.24772 447.776 81.5085 447.776 81.5085H347.776C347.776 81.5085 318.665 9.09739 280.276 10.0085Z" fill="#D9D9D9" stroke="black" stroke-width="19"/>
<path d="M338.102 165.165C306.801 160.668 236.969 154.919 231.28 198.215C225.065 245.513 310.892 242.242 349.587 228.635C388.283 215.027 369.404 169.663 338.102 165.165Z" fill="black"/>
<path d="M513.102 165.165C481.801 160.668 411.969 154.919 406.28 198.215C400.065 245.513 485.892 242.242 524.587 228.635C563.283 215.027 544.404 169.663 513.102 165.165Z" fill="black"/>
<path d="M364 201H415.5" stroke="black" stroke-width="10"/>
<path d="M409.999 259.999C416 247.999 366.999 245.499 369.499 259.999C371.998 274.499 392.499 277.499 392.499 277.499C392.499 277.499 403.998 271.999 409.999 259.999Z" fill="black" stroke="black" stroke-width="10"/>
<path d="M530.5 89.9992H482.5C482.5 89.9992 489.503 48.9781 508 49.9992C525.895 50.9871 530.5 89.9992 530.5 89.9992Z" fill="#FCDFFF" stroke="black" stroke-width="10"/>
<path d="M305 87.0188H257C257 87.0188 264.003 45.9976 282.5 47.0188C300.395 48.0067 305 87.0188 305 87.0188Z" fill="#FCDFFF" stroke="black" stroke-width="10"/>
<path d="M382.847 323.423C399.37 325.125 422.651 313.579 422.651 313.579" stroke="black" stroke-width="10" stroke-linecap="round"/>
<path d="M154.232 376.313L124.541 301.302C123.987 299.903 122.922 298.784 121.566 298.133C112.743 293.896 79.1565 276.566 76.6754 257.167C73.817 234.818 65.51 251.747 63.3438 254.411C56.4278 262.917 67.5823 300.102 72.0267 313.8C72.9593 316.675 71.5699 319.813 68.7917 321.003L32.824 336.401C29.3414 337.892 28.2298 342.287 30.5846 345.254L79.9736 407.496C81.5476 409.48 84.2345 410.199 86.5889 409.267L151.004 383.77C153.954 382.602 155.4 379.264 154.232 376.313Z" fill="#5C846D" stroke="black" stroke-width="17.2364" stroke-linecap="round"/>
<path d="M204.308 357.336L182.507 283.782C181.548 280.547 178.021 278.831 174.884 280.073L154.78 288.03C151.74 289.234 150.315 292.728 151.648 295.714L182.815 365.56C184.069 368.37 187.315 369.694 190.177 368.561L200.914 364.311C203.681 363.216 205.153 360.189 204.308 357.336Z" fill="#5C846D" stroke="black" stroke-width="17.2364" stroke-linecap="round"/>
</svg>
