<svg width="483" height="404" viewBox="0 0 483 404" fill="none" xmlns="http://www.w3.org/2000/svg">
<path d="M425.842 140.54L404.786 39.4752C403.568 33.6271 407.715 28.0223 413.664 27.4773L456.18 23.5827C462.355 23.0171 467.552 28.1504 467.061 34.3322L458.731 139.291C458.318 144.491 453.978 148.5 448.762 148.5H435.631C430.895 148.5 426.808 145.177 425.842 140.54Z" fill="#5C846D" stroke="black" stroke-width="30" stroke-linecap="round"/>
<path d="M89.2757 10.0085C47.2608 11.0057 28.7757 99.0085 28.7757 99.0085C28.7757 99.0085 -13.4696 238.172 28.7757 308.009C98.6118 423.455 300.301 420.848 374.276 308.009C422.771 234.034 374.276 81.5085 374.276 81.5085C374.276 81.5085 352.599 10.7564 316.776 10.0085C280.332 9.24772 256.776 81.5085 256.776 81.5085H156.776C156.776 81.5085 127.665 9.09739 89.2757 10.0085Z" fill="#D9D9D9" stroke="black" stroke-width="19"/>
<path d="M218.999 259.999C225 247.999 175.999 245.499 178.499 259.999C180.998 274.499 201.499 277.499 201.499 277.499C201.499 277.499 212.998 271.999 218.999 259.999Z" fill="black" stroke="black" stroke-width="10"/>
<path d="M339.5 89.9992H291.5C291.5 89.9992 298.503 48.9781 317 49.9992C334.895 50.9871 339.5 89.9992 339.5 89.9992Z" fill="#FCDFFF" stroke="black" stroke-width="10"/>
<path d="M114 87.0188H66C66 87.0188 73.0029 45.9976 91.5 47.0188C109.395 48.0067 114 87.0188 114 87.0188Z" fill="#FCDFFF" stroke="black" stroke-width="10"/>
<circle cx="103" cy="196" r="13" fill="black"/>
<circle cx="302" cy="196" r="13" fill="black"/>
<ellipse cx="202.5" cy="330.5" rx="10.5" ry="25.5" fill="black"/>
<circle cx="444.5" cy="195.5" r="23.5" fill="black"/>
</svg>
