<svg width="406" height="404" viewBox="0 0 406 404" fill="none" xmlns="http://www.w3.org/2000/svg">
<path d="M89.2757 10.0085C47.2608 11.0057 28.7757 99.0085 28.7757 99.0085C28.7757 99.0085 -13.4696 238.172 28.7757 308.009C98.6118 423.455 300.301 420.848 374.276 308.009C422.771 234.034 374.276 81.5085 374.276 81.5085C374.276 81.5085 352.599 10.7564 316.776 10.0085C280.332 9.24772 256.776 81.5085 256.776 81.5085H156.776C156.776 81.5085 127.665 9.09739 89.2757 10.0085Z" fill="#D9D9D9" stroke="black" stroke-width="19"/>
<path d="M147.102 165.165C115.801 160.668 45.9687 154.919 40.28 198.215C34.0653 245.513 119.892 242.242 158.587 228.635C197.283 215.027 178.404 169.663 147.102 165.165Z" fill="black"/>
<path d="M322.102 165.165C290.801 160.668 220.969 154.919 215.28 198.215C209.065 245.513 294.892 242.242 333.587 228.635C372.283 215.027 353.404 169.663 322.102 165.165Z" fill="black"/>
<path d="M173 201H224.5" stroke="black" stroke-width="10"/>
<path d="M218.999 259.999C225 247.999 175.999 245.499 178.499 259.999C180.998 274.499 201.499 277.499 201.499 277.499C201.499 277.499 212.998 271.999 218.999 259.999Z" fill="black" stroke="black" stroke-width="10"/>
<path d="M339.5 89.9992H291.5C291.5 89.9992 298.503 48.9781 317 49.9992C334.895 50.9871 339.5 89.9992 339.5 89.9992Z" fill="#FCDFFF" stroke="black" stroke-width="10"/>
<path d="M114 87.0188H66C66 87.0188 73.0029 45.9976 91.5 47.0188C109.395 48.0067 114 87.0188 114 87.0188Z" fill="#FCDFFF" stroke="black" stroke-width="10"/>
<path d="M191.847 323.423C208.37 325.125 231.651 313.579 231.651 313.579" stroke="black" stroke-width="10" stroke-linecap="round"/>
</svg>
