<svg width="714" height="440" viewBox="0 0 714 440" fill="none" xmlns="http://www.w3.org/2000/svg">
<path d="M154.232 395.313L124.541 320.302C123.987 318.903 122.922 317.784 121.566 317.133C112.743 312.896 79.1565 295.566 76.6754 276.167C73.817 253.818 65.51 270.747 63.3438 273.411C56.4278 281.917 67.5823 319.102 72.0267 332.8C72.9593 335.675 71.5699 338.813 68.7917 340.003L32.824 355.401C29.3414 356.892 28.2298 361.287 30.5846 364.254L79.9736 426.496C81.5476 428.48 84.2345 429.199 86.5889 428.267L151.004 402.77C153.954 401.602 155.4 398.264 154.232 395.313Z" fill="#5C846D" stroke="black" stroke-width="17.2364" stroke-linecap="round"/>
<path d="M204.308 376.336L182.507 302.782C181.548 299.547 178.021 297.831 174.884 299.073L154.78 307.03C151.74 308.234 150.315 311.728 151.648 314.714L182.815 384.56C184.069 387.37 187.315 388.694 190.177 387.561L200.914 383.311C203.681 382.216 205.153 379.189 204.308 376.336Z" fill="#5C846D" stroke="black" stroke-width="17.2364" stroke-linecap="round"/>
<path d="M117.693 175.904C152.514 214.632 249.268 154.156 249.268 154.156C249.268 154.156 131.285 398.821 410.747 393.928C690.209 389.034 557.002 154.156 557.002 154.156C557.002 154.156 655.896 214.641 693.471 175.904C739.339 128.619 624.565 96.5243 567.333 63.9022C501.529 26.3942 456.452 6.11613 380.844 10.6196C318.167 14.3528 282.188 30.2953 229.151 63.9022C177.028 96.9306 76.4351 130.018 117.693 175.904Z" fill="#CBB394" stroke="black" stroke-width="19" stroke-linecap="round"/>
<path d="M423.593 279.96C429.593 267.96 380.593 265.459 383.093 279.96C385.592 294.46 406.093 297.46 406.093 297.46C406.093 297.46 417.592 291.96 423.593 279.96Z" fill="black" stroke="black" stroke-width="10"/>
<path d="M371 311.5C393 346.5 403.5 302 403.5 302C403.5 302 414 341 441.5 311.5" stroke="black" stroke-width="10" stroke-linecap="round"/>
<path d="M360.867 186.004C333.505 182.073 272.462 177.048 267.49 214.894C262.057 256.239 337.081 253.38 370.906 241.485C404.731 229.59 388.229 189.936 360.867 186.004Z" fill="black"/>
<path d="M513.839 186.004C486.477 182.073 425.435 177.048 420.462 214.894C415.03 256.239 490.054 253.38 523.879 241.485C557.704 229.59 541.201 189.936 513.839 186.004Z" fill="black"/>
<path d="M383.504 217.33H428.522" stroke="black" stroke-width="8.74136"/>
</svg>
