<svg width="616" height="404" viewBox="0 0 616 404" fill="none" xmlns="http://www.w3.org/2000/svg">
<path d="M19.6929 175.904C54.5142 214.632 151.268 154.156 151.268 154.156C151.268 154.156 33.2854 398.821 312.747 393.928C592.209 389.034 459.002 154.156 459.002 154.156C459.002 154.156 557.896 214.641 595.471 175.904C641.339 128.619 526.565 96.5243 469.333 63.9022C403.529 26.3942 358.452 6.11613 282.844 10.6196C220.167 14.3528 184.188 30.2953 131.151 63.9022C79.0275 96.9306 -21.5649 130.018 19.6929 175.904Z" fill="#CBB394" stroke="black" stroke-width="19" stroke-linecap="round"/>
<path d="M325.593 279.96C331.593 267.96 282.593 265.459 285.093 279.96C287.592 294.46 308.093 297.46 308.093 297.46C308.093 297.46 319.592 291.96 325.593 279.96Z" fill="black" stroke="black" stroke-width="10"/>
<path d="M273 311.5C295 346.5 305.5 302 305.5 302C305.5 302 316 341 343.5 311.5" stroke="black" stroke-width="10" stroke-linecap="round"/>
<path d="M262.867 186.004C235.505 182.073 174.462 177.048 169.49 214.894C164.057 256.239 239.081 253.38 272.906 241.485C306.731 229.59 290.229 189.936 262.867 186.004Z" fill="black"/>
<path d="M415.839 186.004C388.477 182.073 327.435 177.048 322.462 214.894C317.03 256.239 392.054 253.38 425.879 241.485C459.704 229.59 443.201 189.936 415.839 186.004Z" fill="black"/>
<path d="M285.504 217.33H330.522" stroke="black" stroke-width="8.74136"/>
</svg>
