<svg width="616" height="404" viewBox="0 0 616 404" fill="none" xmlns="http://www.w3.org/2000/svg">
<path d="M19.6929 175.904C54.5142 214.632 151.268 154.156 151.268 154.156C151.268 154.156 33.2854 398.821 312.747 393.928C592.209 389.034 459.002 154.156 459.002 154.156C459.002 154.156 557.896 214.641 595.471 175.904C641.339 128.619 526.565 96.5243 469.333 63.9022C403.529 26.3942 358.452 6.11613 282.844 10.6196C220.167 14.3528 184.188 30.2953 131.151 63.9022C79.0275 96.9306 -21.5649 130.018 19.6929 175.904Z" fill="#CBB394" stroke="black" stroke-width="19" stroke-linecap="round"/>
<path d="M325.593 279.96C331.593 267.96 282.593 265.459 285.093 279.96C287.592 294.46 308.093 297.46 308.093 297.46C308.093 297.46 319.592 291.96 325.593 279.96Z" fill="black" stroke="black" stroke-width="10"/>
<path d="M201.5 175L237 180H201.5L246 179.5L204 184H245.5L198 187.5H242L201.5 184V184C206.092 184.365 206.087 191.083 201.5 191.5V191.5H244.5" stroke="black" stroke-width="4"/>
<path d="M373 175.5L408.5 180.5H373L417.5 180L375.5 184.5H417L369.5 188H413.5L373 184.5V184.5C377.592 184.865 377.587 191.583 373 192V192H416" stroke="black" stroke-width="4"/>
<path d="M288 329L306.5 302L329 329" stroke="black" stroke-width="10" stroke-linecap="round"/>
<path d="M213.888 197.809C213.706 197.831 212.259 199.766 212.201 200.026C211.874 201.498 211.5 202.655 211.5 204.292C211.5 206.565 214.1 208.049 215.67 209.334C217.871 211.134 220.713 212.011 220.713 215.551C220.713 218.3 219.125 219.528 217.301 221.352C215.214 223.439 209.948 229.222 212.599 232.536C213.298 233.41 213.969 235.048 215.064 235.361C215.816 235.576 216.814 236.409 217.376 236.972C218.873 238.468 219.348 240.093 219.348 242.166C219.348 244.44 218.257 246.15 216.277 247.36C214.939 248.177 212.342 252.773 213.623 254.374C215.057 256.166 216.791 257.343 218.59 258.961C220.645 260.811 220.713 261.394 220.713 264.344C220.713 266.209 219.35 267.952 217.642 268.856C216.023 269.713 215.235 272.492 216.012 274.24C216.488 275.311 216.702 276.112 217.301 277.159C217.781 278 218.608 278.551 219.082 279.358C220.174 281.213 222.189 282.094 221.395 284.476" stroke="#7CB8FE" stroke-width="10" stroke-linecap="round"/>
<path d="M232.83 197.5C232.648 197.523 231.201 199.457 231.143 199.718C230.816 201.189 230.441 202.346 230.441 203.983C230.441 206.257 233.041 207.74 234.612 209.025C236.812 210.826 239.654 211.703 239.654 215.243C239.654 217.992 238.066 219.219 236.242 221.043C234.155 223.13 228.89 228.914 231.541 232.228C232.24 233.101 232.91 234.739 234.005 235.052C234.757 235.267 235.755 236.101 236.318 236.663C237.814 238.16 238.289 239.785 238.289 241.857C238.289 244.131 237.199 245.841 235.218 247.051C233.881 247.869 231.284 252.464 232.564 254.065C233.999 255.858 235.733 257.034 237.531 258.652C239.587 260.502 239.654 261.085 239.654 264.036C239.654 265.9 238.291 267.643 236.583 268.547C234.964 269.405 234.176 272.183 234.953 273.931C235.429 275.002 235.644 275.803 236.242 276.85C236.723 277.692 237.549 278.242 238.024 279.049C239.115 280.904 241.131 281.785 240.336 284.167" stroke="#7CB8FE" stroke-width="10" stroke-linecap="round"/>
<path d="M385.888 197.809C385.706 197.831 384.259 199.766 384.201 200.026C383.874 201.498 383.5 202.655 383.5 204.292C383.5 206.565 386.1 208.049 387.67 209.334C389.871 211.134 392.713 212.011 392.713 215.551C392.713 218.3 391.125 219.528 389.301 221.352C387.214 223.439 381.948 229.222 384.599 232.536C385.298 233.41 385.969 235.048 387.064 235.361C387.816 235.576 388.814 236.409 389.376 236.972C390.873 238.468 391.348 240.093 391.348 242.166C391.348 244.44 390.257 246.15 388.277 247.36C386.939 248.177 384.342 252.773 385.623 254.374C387.057 256.166 388.791 257.343 390.59 258.961C392.645 260.811 392.713 261.394 392.713 264.344C392.713 266.209 391.35 267.952 389.642 268.856C388.023 269.713 387.235 272.492 388.012 274.24C388.488 275.311 388.702 276.112 389.301 277.159C389.781 278 390.608 278.551 391.082 279.358C392.174 281.213 394.189 282.094 393.395 284.476" stroke="#7CB8FE" stroke-width="10" stroke-linecap="round"/>
<path d="M404.83 197.5C404.648 197.523 403.201 199.457 403.143 199.718C402.816 201.189 402.441 202.346 402.441 203.983C402.441 206.257 405.041 207.74 406.612 209.025C408.812 210.826 411.654 211.703 411.654 215.243C411.654 217.992 410.066 219.219 408.242 221.043C406.155 223.13 400.89 228.914 403.541 232.228C404.24 233.101 404.91 234.739 406.005 235.052C406.757 235.267 407.755 236.101 408.318 236.663C409.814 238.16 410.289 239.785 410.289 241.857C410.289 244.131 409.199 245.841 407.218 247.051C405.881 247.869 403.284 252.464 404.564 254.065C405.999 255.858 407.733 257.034 409.531 258.652C411.587 260.502 411.654 261.085 411.654 264.036C411.654 265.9 410.291 267.643 408.583 268.547C406.964 269.405 406.176 272.183 406.953 273.931C407.429 275.002 407.644 275.803 408.242 276.85C408.723 277.692 409.549 278.242 410.024 279.049C411.115 280.904 413.131 281.785 412.336 284.167" stroke="#7CB8FE" stroke-width="10" stroke-linecap="round"/>
</svg>
