<svg width="530" height="247" viewBox="0 0 530 247" fill="none" xmlns="http://www.w3.org/2000/svg">
<ellipse cx="77.4147" cy="73.4335" rx="77.4147" ry="73.4335" transform="matrix(0.995365 -0.0961725 0.0973974 0.995246 0 81.9258)" fill="white"/>
<ellipse cx="77.4147" cy="73.4335" rx="77.4147" ry="73.4335" transform="matrix(0.995355 -0.0962776 0.097291 0.995256 238.736 99.9102)" fill="white"/>
<ellipse cx="77.4147" cy="73.4335" rx="77.4147" ry="73.4335" transform="matrix(0.995355 -0.0962776 0.097291 0.995256 101.887 99.9102)" fill="white"/>
<ellipse cx="77.4147" cy="73.4335" rx="77.4147" ry="73.4335" transform="matrix(0.995355 -0.0962776 0.097291 0.995256 361.602 93.9141)" fill="white"/>
<ellipse cx="77.4147" cy="73.4335" rx="77.4147" ry="73.4335" transform="matrix(0.995355 -0.0962776 0.097291 0.995256 290.68 37.9648)" fill="white"/>
<ellipse cx="77.4147" cy="73.4335" rx="77.4147" ry="73.4335" transform="matrix(0.995355 -0.0962776 0.097291 0.995256 198.781 14.9844)" fill="white"/>
<ellipse cx="77.4147" cy="73.4335" rx="77.4147" ry="73.4335" transform="matrix(0.995355 -0.0962776 0.097291 0.995256 88.9023 34.9688)" fill="white"/>
<path d="M223.477 95.6113C228.511 95.7878 233.315 97.9255 237.554 100.673C243.834 104.742 249.443 110.702 250.774 118.103C251.165 120.271 251.14 122.641 249.964 124.496C248.522 126.78 245.6 127.758 242.913 127.607C240.226 127.451 237.694 126.352 235.227 125.273C232.559 124.098 229.892 122.933 227.225 121.764L227.105 121.849C227.846 122.903 228.556 123.987 229.222 125.091C235.092 134.741 238.039 146.393 234.771 157.485C231.298 169.263 221.395 175.873 210.091 178.974C198.967 182.034 187.028 181.515 176.024 178.177C165.065 174.849 153.856 168.95 148.797 158.075C143.662 147.044 145.099 134.393 149.677 123.437L149.467 123.347C146.65 124.37 143.837 125.394 141.025 126.422C138.418 127.37 135.746 128.333 132.964 128.323C130.181 128.323 127.229 127.143 125.863 124.738C124.752 122.782 124.857 120.367 125.378 118.199C127.164 110.757 133.279 105.045 139.979 101.299C144.588 98.7171 150.523 96.539 155.822 96.7306C157.253 94.7643 159.025 93.0601 161.051 91.7341C162.753 90.6198 164.624 89.7728 166.526 89.0669C178.09 84.7864 190.871 85.709 203.056 87.4989C207.514 88.1544 212.003 88.9308 216.146 90.7055C218.858 91.8652 221.425 93.4987 223.472 95.6063L223.477 95.6113ZM188.899 162.366C201.074 162.114 210.852 157.546 210.742 152.161C210.632 146.771 200.674 142.617 188.499 142.864C176.329 143.116 166.551 147.684 166.661 153.069C166.771 158.453 176.729 162.613 188.899 162.361V162.366ZM207.249 131.066C207.504 129.619 206.548 128.232 205.112 127.97C203.676 127.708 202.3 128.676 202.04 130.123C201.78 131.57 202.74 132.962 204.176 133.224C205.613 133.486 206.989 132.518 207.249 131.066ZM170.329 131.953C170.589 130.501 169.628 129.115 168.192 128.852C166.756 128.59 165.375 129.558 165.115 131.01C164.855 132.462 165.815 133.844 167.256 134.106C168.698 134.368 170.069 133.4 170.329 131.953Z" fill="#CBB394"/>
<path d="M210.999 152.532C211.109 158.05 201.349 162.731 189.197 162.989C177.05 163.247 167.116 158.98 167.001 153.468C166.891 147.945 176.651 143.269 188.798 143.011C200.95 142.753 210.889 147.015 210.999 152.538V152.532ZM177.24 149.495C177.345 148.895 176.955 148.317 176.376 148.214C175.797 148.11 175.232 148.508 175.132 149.107C175.032 149.707 175.417 150.29 176.001 150.399C176.586 150.507 177.14 150.104 177.245 149.5L177.24 149.495Z" fill="#231815"/>
<path d="M204.942 128.04C206.298 128.281 207.206 129.584 206.96 130.939C206.714 132.294 205.414 133.206 204.058 132.96C202.702 132.715 201.794 131.416 202.04 130.056C202.286 128.697 203.586 127.795 204.942 128.04Z" fill="#231815"/>
<path d="M176.179 148.021C176.719 148.119 177.082 148.635 176.984 149.175C176.886 149.714 176.37 150.082 175.826 149.984C175.281 149.887 174.918 149.37 175.016 148.821C175.114 148.272 175.63 147.919 176.174 148.016L176.179 148.021Z" fill="white"/>
<path d="M167.944 129.04C169.299 129.281 170.205 130.584 169.96 131.944C169.714 133.303 168.416 134.205 167.061 133.96C165.706 133.714 164.794 132.416 165.04 131.061C165.286 129.706 166.584 128.794 167.944 129.04Z" fill="#231815"/>
<path d="M150.369 122.449C150.299 122.617 150.223 122.79 150.153 122.957C145.553 134.005 144.11 146.756 149.268 157.885C154.355 168.852 165.611 174.795 176.62 178.156C187.675 181.521 199.669 182.04 210.845 178.959C222.201 175.832 232.149 169.167 235.638 157.29C238.921 146.105 235.96 134.356 230.063 124.625C229.395 123.512 228.681 122.424 227.937 121.356C227.856 121.234 227.776 121.122 227.695 121" stroke="#231815" stroke-width="1.50542" stroke-miterlimit="10"/>
<path d="M156 97.0125H155.895C150.578 96.8134 144.63 99.0191 140.016 101.633C133.3 105.432 127.171 111.212 125.38 118.748C124.854 120.943 124.754 123.389 125.867 125.37C127.236 127.81 130.195 128.995 132.984 129C135.768 129.01 138.446 128.035 141.064 127.075C143.883 126.033 146.701 124.997 149.525 123.961" stroke="#231815" stroke-width="1.50542" stroke-miterlimit="10"/>
<path d="M223 96C223.121 96 223.251 96 223.372 96.0151C228.425 96.1914 233.247 98.3275 237.502 101.073C243.806 105.139 249.437 111.093 250.773 118.489C251.165 120.655 251.14 123.023 249.96 124.877C248.513 127.159 245.579 128.136 242.882 127.985C240.184 127.829 237.643 126.73 235.166 125.652C232.489 124.479 229.811 123.315 227.134 122.146" stroke="#231815" stroke-width="1.50542" stroke-miterlimit="10"/>
<path d="M169.96 131.944C169.719 133.299 168.416 134.205 167.061 133.96C165.706 133.714 164.794 132.416 165.04 131.061C165.285 129.706 166.584 128.794 167.944 129.04C169.303 129.286 170.205 130.584 169.96 131.944Z" stroke="#231815" stroke-width="0.501806" stroke-miterlimit="10" stroke-linecap="round"/>
<path d="M206.96 130.939C206.714 132.299 205.414 133.205 204.058 132.96C202.702 132.714 201.794 131.416 202.04 130.056C202.286 128.697 203.586 127.795 204.942 128.04C206.298 128.286 207.206 129.584 206.96 130.939Z" stroke="#231815" stroke-width="0.501806" stroke-miterlimit="10" stroke-linecap="round"/>
<path d="M188.798 143.011C200.95 142.753 210.889 147.014 210.999 152.535C211.109 158.051 201.349 162.731 189.197 162.989C177.05 163.247 167.116 158.981 167.001 153.47C166.891 147.949 176.651 143.275 188.798 143.016V143.011Z" stroke="#231815" stroke-width="0.501806" stroke-miterlimit="10" stroke-linecap="round"/>
<path d="M153 104C153.634 101.493 154.755 99.1158 156.243 97.0233C157.681 95.0033 159.461 93.2527 161.498 91.8905C163.207 90.7459 165.088 89.8757 166.999 89.1506C178.619 84.7533 191.461 85.7011 203.704 87.5398C208.184 88.2131 212.695 89.0108 216.858 90.8339C219.583 92.0252 222.163 93.7033 224.219 95.8683C225.316 97.0078 226.256 98.2923 227 99.7114" stroke="#231815" stroke-width="1.50542" stroke-miterlimit="10" stroke-linecap="round"/>
<path d="M176.989 149.175C176.891 149.719 176.373 150.082 175.827 149.984C175.282 149.886 174.918 149.37 175.016 148.821C175.114 148.272 175.632 147.919 176.177 148.016C176.723 148.114 177.082 148.63 176.984 149.17L176.989 149.175Z" stroke="white" stroke-width="0.501806" stroke-miterlimit="10" stroke-linecap="round"/>
<path d="M165.497 53.362C160.994 52.9504 157.595 54.6867 154 57.6063C156.17 52.5838 161.537 49.5034 166.91 49.0661C172.277 48.6224 177.613 50.4616 182.35 53.079C186.279 55.2462 189.987 58.0372 192.485 61.8186C194.553 64.9375 195.727 68.9633 194.503 72.5131C193.551 75.2655 191.343 77.3234 188.858 78.8347C188.379 79.1305 187.887 79.4006 187.395 79.6578C185.831 80.4617 184.115 81.1369 182.375 80.9761C179.72 80.7253 177.563 78.5388 176.427 76.0822C175.292 73.6192 174.964 70.8668 174.441 68.2044C173.312 62.4166 170.486 56.3523 165.497 53.362Z" fill="#3A7452"/>
<path d="M165.472 53.3491C165.472 53.3491 165.491 53.362 165.497 53.362M165.497 53.362C170.486 56.3523 173.312 62.4166 174.441 68.2044C174.964 70.8668 175.292 73.6192 176.427 76.0822C177.563 78.5388 179.72 80.7253 182.375 80.9761C184.115 81.1369 185.831 80.4617 187.395 79.6578C187.887 79.4006 188.379 79.1305 188.858 78.8347C191.343 77.3234 193.551 75.2655 194.503 72.5131C195.727 68.9633 194.553 64.9375 192.485 61.8186C189.987 58.0372 186.279 55.2462 182.35 53.079C177.613 50.4616 172.277 48.6224 166.91 49.0661C161.537 49.5034 156.17 52.5838 154 57.6063C157.595 54.6867 160.994 52.9504 165.497 53.362ZM165.497 53.362C165.617 53.3684 165.737 53.3813 165.863 53.3941" stroke="#231815" stroke-width="1.89732" stroke-miterlimit="10"/>
<path d="M189 78L189.095 78.3634C189.637 80.531 189.631 82.8388 189.063 85" stroke="#231815" stroke-width="1.89732" stroke-miterlimit="10"/>
<path d="M165.497 53.362C160.994 52.9504 157.595 54.6867 154 57.6063C156.17 52.5838 161.537 49.5034 166.91 49.0661C172.277 48.6224 177.613 50.4616 182.35 53.079C186.279 55.2462 189.987 58.0372 192.485 61.8186C194.553 64.9375 195.727 68.9633 194.503 72.5131C193.551 75.2655 191.343 77.3234 188.858 78.8347C188.379 79.1305 187.887 79.4006 187.395 79.6578C185.831 80.4617 184.115 81.1369 182.375 80.9761C179.72 80.7253 177.563 78.5388 176.427 76.0822C175.292 73.6192 174.964 70.8668 174.441 68.2044C173.312 62.4166 170.486 56.3523 165.497 53.362Z" fill="#3A7452"/>
<path d="M165.472 53.3491C165.472 53.3491 165.491 53.362 165.497 53.362M165.497 53.362C170.486 56.3523 173.312 62.4166 174.441 68.2044C174.964 70.8668 175.292 73.6192 176.427 76.0822C177.563 78.5388 179.72 80.7253 182.375 80.9761C184.115 81.1369 185.831 80.4617 187.395 79.6578C187.887 79.4006 188.379 79.1305 188.858 78.8347C191.343 77.3234 193.551 75.2655 194.503 72.5131C195.727 68.9633 194.553 64.9375 192.485 61.8186C189.987 58.0372 186.279 55.2462 182.35 53.079C177.613 50.4616 172.277 48.6224 166.91 49.0661C161.537 49.5034 156.17 52.5838 154 57.6063C157.595 54.6867 160.994 52.9504 165.497 53.362ZM165.497 53.362C165.617 53.3684 165.737 53.3813 165.863 53.3941" stroke="#231815" stroke-width="1.89732" stroke-miterlimit="10"/>
<path d="M189 78L189.095 78.3634C189.637 80.531 189.631 82.8388 189.063 85" stroke="#231815" stroke-width="1.89732" stroke-miterlimit="10"/>
<path d="M158.366 54.9708C163.439 51.2373 169.997 53.0446 174.755 56.3466C179.512 59.6486 183.063 64.1513 185.445 69.2169C186.797 72.0999 187.694 75.183 188.162 78.3224C188.339 79.5106 190.165 79.004 189.988 77.8221C189.097 71.8059 186.551 66.115 182.76 61.3434C179.007 56.6218 173.573 52.119 167.394 51.181C163.932 50.6557 160.261 51.2435 157.405 53.3448C156.439 54.0577 157.38 55.69 158.359 54.9645L158.366 54.9708Z" fill="#040000"/>
<path d="M189.233 62.9576C189.233 65.9809 188.509 68.9315 187.131 71.5248C186.547 72.623 188.073 73.6219 188.656 72.5237C190.193 69.6393 191.006 66.3183 191 62.9576C191 61.6808 189.233 61.6808 189.233 62.9576Z" fill="#040000"/>
<path d="M177.628 69.9478C178.894 70.3687 180.184 70.6515 181.498 70.8225C182.721 70.9803 184.15 71.1776 185.331 70.6975C185.791 70.5134 186.106 70.0333 185.967 69.4808C185.846 69.0007 185.313 68.6061 184.846 68.7903C184.332 69.0007 183.823 69.0007 183.278 68.9876C182.685 68.9679 182.085 68.9218 181.498 68.8495C180.347 68.7048 179.215 68.4154 178.113 68.0471C177.011 67.6788 176.514 69.5795 177.628 69.9478Z" fill="#040000"/>
<path d="M183.297 58.1201C183.334 58.2971 183.36 58.4681 183.387 58.651C183.355 58.4504 183.387 58.6746 183.392 58.7217C183.402 58.822 183.407 58.9282 183.413 59.0285C183.434 59.3588 183.434 59.695 183.413 60.0253C183.413 60.1019 183.402 60.1786 183.397 60.2553C183.397 60.3084 183.387 60.3556 183.381 60.4087C183.392 60.3143 183.397 60.2966 183.387 60.3615C183.36 60.5266 183.339 60.6918 183.308 60.851C183.24 61.199 183.151 61.547 183.035 61.8832C182.894 62.3197 183.198 62.8742 183.586 62.9744C184.031 63.0865 184.398 62.8211 184.555 62.3551C185.053 60.8569 185.122 59.2113 184.817 57.6541C184.728 57.2 184.241 56.8933 183.848 57.0348C183.423 57.1882 183.203 57.6364 183.297 58.126V58.1201Z" fill="#040000"/>
<path d="M174.493 60.4479C176.291 61.0918 178.392 61.2008 180.251 60.6244C180.741 60.4738 181.136 60.0999 180.955 59.6637C180.801 59.3002 180.244 58.9575 179.714 59.1185C179.345 59.2327 178.962 59.321 178.566 59.3781C178.519 59.3833 178.157 59.4249 178.412 59.4041C178.325 59.4093 178.244 59.4197 178.157 59.4249C177.942 59.4405 177.727 59.4456 177.519 59.4405C177.318 59.4405 177.124 59.4197 176.922 59.4093C176.848 59.4041 176.869 59.4093 176.976 59.4145C176.922 59.4093 176.862 59.3989 176.808 59.3937C176.707 59.3781 176.614 59.3626 176.513 59.347C176.318 59.3106 176.124 59.2743 175.936 59.2224C175.842 59.1964 175.748 59.1704 175.654 59.1445C175.547 59.1133 175.547 59.1133 175.654 59.1445C175.6 59.1289 175.547 59.1081 175.5 59.0925C175.023 58.9212 174.392 58.9731 174.124 59.3729C173.889 59.7157 173.976 60.2557 174.486 60.4375L174.493 60.4479Z" fill="#040000"/>
<path d="M175.149 53.498C175.289 53.7106 175.414 53.9232 175.517 54.149L175.407 53.9099C175.591 54.3151 175.716 54.7337 175.782 55.1721L175.746 54.9064C175.797 55.2718 175.805 55.6372 175.768 56.0026C175.746 56.2418 175.908 56.5407 176.092 56.7068C176.276 56.8729 176.6 57.0124 176.873 56.9991C177.145 56.9858 177.454 56.9061 177.653 56.7068C177.852 56.5075 177.948 56.2816 177.977 56.0026C178.095 54.7935 177.749 53.5312 177.057 52.4948C176.762 52.0497 176.048 51.8437 175.547 52.136C175.046 52.4284 174.832 53.0196 175.149 53.498Z" fill="#040000"/>
<path d="M177.473 74.6734C180.739 76.2904 184.398 77.0989 188.082 76.9903C189.306 76.9541 189.306 75.144 188.082 75.1802C184.734 75.2828 181.411 74.5829 178.437 73.1107C177.353 72.5737 176.389 74.1364 177.48 74.6734H177.473Z" fill="#040000"/>
</svg>
