<svg width="155" height="152" viewBox="0 0 155 152" fill="none" xmlns="http://www.w3.org/2000/svg">
<g clip-path="url(#clip0_1292_3472)">
<path d="M120.579 48.5335C126.692 48.7453 132.525 51.3106 137.672 54.608C145.298 59.4905 152.109 66.6419 153.726 75.5236C154.2 78.1252 154.169 80.9689 152.741 83.1953C150.991 85.9361 147.443 87.1099 144.18 86.9283C140.917 86.7408 137.842 85.4218 134.847 84.1271C131.608 82.7174 128.369 81.3198 125.13 79.9161L124.985 80.019C125.884 81.2835 126.747 82.5843 127.555 83.9093C134.682 95.4894 138.261 109.472 134.294 122.782C130.077 136.915 118.051 144.847 104.325 148.568C90.8173 152.241 76.3191 151.618 62.9572 147.612C49.65 143.619 36.0389 136.54 29.8958 123.49C23.6614 110.252 25.4053 95.072 30.9652 81.9248L30.71 81.8159C27.289 83.0441 23.8741 84.2723 20.4592 85.5065C17.2934 86.644 14.0486 87.7996 10.6702 87.7875C7.29172 87.7875 3.70668 86.3717 2.04783 83.4858C0.698881 81.1383 0.826485 78.2402 1.45843 75.6386C3.62768 66.7084 11.053 59.8535 19.1892 55.3582C24.7855 52.2605 31.9921 49.6468 38.427 49.8767C40.1648 47.5171 42.3158 45.4721 44.7767 43.8809C46.8427 42.5438 49.1153 41.5273 51.4243 40.6803C65.4667 35.5437 80.9857 36.6509 95.7817 38.7987C101.196 39.5852 106.646 40.517 111.677 42.6466C114.971 44.0382 118.088 45.9985 120.573 48.5275L120.579 48.5335ZM78.5916 128.639C93.3754 128.336 105.249 122.855 105.115 116.393C104.981 109.925 92.8893 104.94 78.1055 105.236C63.3278 105.539 51.4547 111.02 51.5883 117.482C51.722 123.944 63.814 128.935 78.5916 128.633V128.639ZM100.874 91.0788C101.184 89.3424 100.023 87.6786 98.279 87.364C96.5351 87.0494 94.8641 88.211 94.5482 89.9474C94.2322 91.6838 95.3988 93.3537 97.1427 93.6683C98.8867 93.9829 100.558 92.8213 100.874 91.0788ZM56.0423 92.1437C56.3583 90.4012 55.1916 88.7374 53.4477 88.4228C51.7038 88.1081 50.0267 89.2698 49.7107 91.0123C49.3948 92.7547 50.5614 94.4125 52.3114 94.7271C54.0614 95.0417 55.7263 93.8801 56.0423 92.1437Z" fill="#CBB394"/>
<path d="M105.999 115.962C106.134 122.307 94.156 127.69 79.2421 127.987C64.3344 128.284 52.1421 123.377 52.0011 117.038C51.8663 110.687 63.844 105.31 78.7517 105.013C93.6656 104.716 105.864 109.617 105.999 115.968V115.962ZM64.5673 112.469C64.696 111.78 64.2179 111.114 63.5068 110.996C62.7958 110.877 62.1031 111.334 61.9805 112.023C61.8579 112.713 62.3299 113.384 63.0471 113.509C63.7643 113.633 64.4447 113.17 64.5734 112.475L64.5673 112.469Z" fill="#231815"/>
<path d="M97.5302 87.0483C99.1578 87.3373 100.247 88.901 99.9518 90.5271C99.6569 92.1532 98.0973 93.2466 96.4698 92.952C94.8422 92.6574 93.7533 91.0993 94.0482 89.4676C94.3431 87.8359 95.9027 86.7537 97.5302 87.0483Z" fill="#231815"/>
<path d="M62.7687 111.031C63.5783 111.178 64.1227 111.952 63.9761 112.762C63.8296 113.572 63.0549 114.123 62.2383 113.976C61.4217 113.83 60.8773 113.055 61.0238 112.232C61.1704 111.408 61.9451 110.878 62.7617 111.024L62.7687 111.031Z" fill="white"/>
<path d="M53.5325 88.048C55.1586 88.3369 56.2465 89.9007 55.9518 91.5324C55.6572 93.1641 54.0991 94.2463 52.473 93.9517C50.8469 93.657 49.7533 92.099 50.048 90.4729C50.3426 88.8468 51.9007 87.7534 53.5325 88.048Z" fill="#231815"/>
<path d="M31.2812 81.7146C31.1961 81.9132 31.1049 82.1177 31.0199 82.3162C25.4597 95.3894 23.7157 110.478 29.9504 123.647C36.1 136.624 49.7057 143.657 63.0136 147.634C76.3762 151.617 90.8752 152.23 104.384 148.585C118.111 144.885 130.137 136.997 134.354 122.944C138.322 109.708 134.743 95.8045 127.615 84.2896C126.807 82.972 125.944 81.6845 125.044 80.4211C124.947 80.2767 124.85 80.1444 124.753 80" stroke="#231815" stroke-width="1.82338" stroke-miterlimit="10"/>
<path d="M39 50.0149H38.8709C32.354 49.7784 25.0625 52.3976 19.4063 55.5019C11.1741 60.0128 3.66122 66.8762 1.46638 75.8253C0.820836 78.4324 0.697876 81.3366 2.06274 83.6891C3.74114 86.5872 7.36847 87.9938 10.7868 87.9999C14.1989 88.012 17.482 86.854 20.6912 85.7141C24.1464 84.4773 27.6016 83.2465 31.0629 82.0157" stroke="#231815" stroke-width="1.82338" stroke-miterlimit="10"/>
<path d="M120 49C120.146 49 120.305 49 120.451 49.0179C126.588 49.2273 132.443 51.7639 137.61 55.0242C145.265 59.852 152.102 66.9232 153.725 75.7053C154.201 78.2777 154.17 81.0894 152.737 83.2909C150.98 86.0009 147.418 87.1615 144.142 86.982C140.867 86.7966 137.78 85.4924 134.773 84.2122C131.522 82.8183 128.271 81.4364 125.02 80.0485" stroke="#231815" stroke-width="1.82338" stroke-miterlimit="10"/>
<path d="M55.9516 91.5325C55.6627 93.1586 54.099 94.2465 52.4729 93.9518C50.8468 93.6572 49.7534 92.0991 50.048 90.473C50.3426 88.8469 51.9007 87.7533 53.5324 88.048C55.1641 88.3426 56.2463 89.9007 55.9516 91.5325Z" stroke="#231815" stroke-width="0.607792" stroke-miterlimit="10" stroke-linecap="round"/>
<path d="M99.9518 90.527C99.6569 92.1587 98.0973 93.2465 96.4698 92.9518C94.8422 92.6572 93.7533 91.0992 94.0482 89.4675C94.3431 87.8359 95.9027 86.7537 97.5302 87.0483C99.1578 87.343 100.247 88.901 99.9518 90.527Z" stroke="#231815" stroke-width="0.607792" stroke-miterlimit="10" stroke-linecap="round"/>
<path d="M78.7517 105.013C93.6656 104.716 105.864 109.616 105.999 115.965C106.134 122.309 94.156 127.69 79.2421 127.987C64.3344 128.284 52.1421 123.378 52.0011 117.041C51.8663 110.691 63.844 105.316 78.7517 105.019V105.013Z" stroke="#231815" stroke-width="0.607792" stroke-miterlimit="10" stroke-linecap="round"/>
<path d="M34 58C34.762 55.0754 36.1106 52.3018 37.9006 49.8605C39.6302 47.5039 41.7709 45.4615 44.2202 43.8723C46.2763 42.5368 48.538 41.5217 50.836 40.6757C64.8116 35.5455 80.2568 36.6513 94.9823 38.7964C100.371 39.582 105.795 40.5125 110.802 42.6396C114.08 44.0294 117.182 45.9872 119.656 48.513C120.974 49.8424 122.105 51.341 123 52.9967" stroke="#231815" stroke-width="1.82338" stroke-miterlimit="10" stroke-linecap="round"/>
<path d="M63.9829 112.762C63.836 113.578 63.0595 114.123 62.2411 113.976C61.4226 113.83 60.877 113.055 61.0239 112.232C61.1708 111.408 61.9473 110.878 62.7657 111.024C63.5841 111.171 64.1228 111.945 63.9759 112.755L63.9829 112.762Z" stroke="white" stroke-width="0.607792" stroke-miterlimit="10" stroke-linecap="round"/>
<path d="M59.1813 5.05417C54.8738 4.50293 51.5491 6.03414 48 8.68009C50.2629 3.97006 55.5351 1.23837 60.7101 1.01788C65.8852 0.791258 70.951 2.74509 75.4102 5.40328C79.111 7.61436 82.5752 10.4073 84.8502 14.0883C86.731 17.1324 87.7077 21.0033 86.4034 24.3475C85.3963 26.9261 83.2 28.8064 80.7612 30.1539C80.2879 30.4172 79.8087 30.6561 79.3172 30.8827C77.7823 31.5932 76.12 32.169 74.4455 31.9546C71.9035 31.6177 69.9075 29.4618 68.9004 27.0792C67.8994 24.6966 67.681 22.069 67.2684 19.5089C66.3887 13.9475 63.8831 8.07985 59.1813 5.05417Z" fill="#3A7452"/>
<path d="M59.1816 5.04804C59.1816 5.04804 59.1816 5.04804 59.1816 5.05417M59.1816 5.05417C63.8836 8.07373 66.3893 13.9475 67.269 19.5089C67.6755 22.069 67.8939 24.6905 68.9011 27.0792C69.9082 29.4556 71.8982 31.6177 74.4464 31.9546C76.1209 32.169 77.7893 31.5932 79.3182 30.8827C79.8036 30.6561 80.289 30.4172 80.7622 30.1539C83.2072 28.8064 85.3974 26.9261 86.4046 24.3475C87.709 21.0094 86.7261 17.1324 84.8514 14.0883C82.5763 10.4012 79.1119 7.61436 75.411 5.40328C70.9517 2.74509 65.8857 0.791258 60.7105 1.01788C55.5353 1.23837 50.2691 3.97619 48 8.68009C51.5492 6.03414 54.8679 4.50293 59.1816 5.05417ZM59.1816 5.05417C59.303 5.06642 59.4304 5.08479 59.5578 5.09704" stroke="#231815" stroke-width="1.82338" stroke-miterlimit="10"/>
<path d="M80.1629 29C80.1846 29.1211 80.2172 29.2423 80.2389 29.3698C80.6354 31.5565 80.5539 33.8643 80 36" stroke="#231815" stroke-width="1.82338" stroke-miterlimit="10"/>
<path d="M52.3363 5.60265C57.27 2.2285 63.4661 4.12797 67.8876 7.40503C72.3091 10.6821 75.7121 15.2457 77.8344 20.2401C79.0358 23.0681 79.8286 26.0782 80.164 29.1307C80.2921 30.2837 82.1217 30.2958 81.9936 29.1307C81.3471 23.2138 79.1639 17.5032 75.6145 12.7029C72.0651 7.90265 67.0887 3.40581 61.1182 2.26491C57.7945 1.63377 54.2329 2.09499 51.4093 4.03088C50.4457 4.69236 51.3605 6.2702 52.3302 5.60265H52.3363Z" fill="#040000"/>
<path d="M81.3678 15.8859C81.275 18.6576 80.4947 21.3381 79.136 23.66C78.5576 24.6447 79.9763 25.5625 80.5493 24.5779C82.0608 21.9885 82.9011 18.9676 82.9993 15.8798C83.0375 14.7067 81.4005 14.7067 81.3623 15.8798L81.3678 15.8859Z" fill="#040000"/>
<path d="M70.6688 20.8159C71.8726 21.2366 73.1127 21.5536 74.371 21.7426C75.6292 21.9317 77.0871 22.1939 78.3333 21.7792C78.7991 21.6268 79.1015 21.1451 78.9685 20.6512C78.8414 20.1939 78.3212 19.8586 77.8493 20.011C77.3351 20.1817 76.8149 20.1573 76.2826 20.1208C75.7139 20.0842 75.1513 20.0232 74.5948 19.9317C73.4212 19.7366 72.2719 19.4379 71.1527 19.0415C70.693 18.8769 70.1607 19.2245 70.0336 19.6818C69.8945 20.1878 70.203 20.6451 70.6688 20.8098V20.8159Z" fill="#040000"/>
<path d="M75.4242 11.1333C75.4392 11.2339 75.4593 11.3344 75.4643 11.4291C75.4492 11.2102 75.4643 11.4646 75.4643 11.4942C75.4793 11.6717 75.4893 11.8432 75.4943 12.0207C75.5044 12.3639 75.4943 12.7011 75.4593 13.0383C75.4593 13.0738 75.4543 13.1152 75.4492 13.1507C75.4643 13.0383 75.4643 13.0383 75.4492 13.1389C75.4392 13.2158 75.4292 13.2868 75.4192 13.3637C75.3941 13.5353 75.3591 13.7068 75.324 13.8784C75.2488 14.2216 75.1536 14.5529 75.0384 14.8783C74.888 15.3101 75.2037 15.8722 75.5645 15.9728C76.0054 16.0911 76.3261 15.813 76.4915 15.3516C77.0126 13.8666 77.1178 12.2278 76.8773 10.6541C76.8072 10.1985 76.3161 9.8968 75.9503 10.0329C75.5344 10.1926 75.349 10.6363 75.4242 11.1274V11.1333Z" fill="#040000"/>
<path d="M67.4242 12.392C68.9385 13.0599 70.7465 13.1995 72.3586 12.701C72.7847 12.5714 73.1129 12.1876 72.9632 11.7788C72.825 11.4149 72.3586 11.1158 71.898 11.2554C71.5641 11.3601 71.2071 11.4498 70.8501 11.4797C71.0689 11.4598 70.8213 11.4797 70.7925 11.4797C70.6946 11.4847 70.6025 11.4947 70.5046 11.4947C70.3377 11.4997 70.1707 11.4947 69.998 11.4947C69.9116 11.4947 69.831 11.4847 69.7446 11.4747C69.7101 11.4747 69.6755 11.4698 69.6352 11.4648C69.7446 11.4797 69.7504 11.4797 69.6525 11.4648C69.4855 11.4349 69.3243 11.4099 69.1573 11.375C68.9904 11.3402 68.8349 11.2953 68.6737 11.2454C68.6276 11.2305 68.5816 11.2155 68.5412 11.2006C68.6391 11.2355 68.6391 11.2355 68.547 11.2006C68.4606 11.1657 68.3743 11.1308 68.2879 11.0909C67.8849 10.9164 67.3321 10.9862 67.1076 11.3601C66.9003 11.6991 66.9866 12.1926 67.4185 12.382L67.4242 12.392Z" fill="#040000"/>
<path d="M68.1006 5.49655C68.1669 5.64855 68.2231 5.80715 68.2792 5.96576L68.2027 5.72785C68.3303 6.13097 68.4221 6.54731 68.4681 6.97687L68.4426 6.71253C68.4885 7.14208 68.4885 7.57825 68.4426 8.0078C68.4221 8.2391 68.5446 8.54971 68.6671 8.70831C68.7998 8.88013 69.0193 9.01231 69.2082 8.99909C69.397 8.98587 69.6114 8.90657 69.7492 8.70831L69.8666 8.51006C69.9381 8.35806 69.9687 8.18624 69.9687 8.0078C70.0861 6.80505 69.8666 5.54942 69.4175 4.49205C69.2235 4.03606 68.7131 3.85102 68.3711 4.13519C68.0291 4.41936 67.8913 5.00752 68.0955 5.48994L68.1006 5.49655Z" fill="#040000"/>
<path d="M70.4296 25.5511C73.3907 27.1376 76.7446 27.9834 80.1513 28C81.2829 28.0055 81.2829 26.3472 80.1513 26.3416C77.0495 26.325 74.0122 25.5622 71.315 24.1139C70.3299 23.5887 69.4446 25.0205 70.4296 25.5456V25.5511Z" fill="#040000"/>
</g>
<defs>
<clipPath id="clip0_1292_3472">
<rect width="155" height="152" fill="white"/>
</clipPath>
</defs>
</svg>
