<svg width="629" height="423" viewBox="0 0 629 423" fill="none" xmlns="http://www.w3.org/2000/svg">
<path d="M539.872 334.382L551.728 231.831C552.414 225.897 558.116 221.884 563.934 223.241L605.512 232.939C611.551 234.348 614.865 240.857 612.452 246.569L571.479 343.559C569.45 348.364 564.068 350.802 559.117 349.158L546.655 345.022C542.159 343.529 539.328 339.088 539.872 334.382Z" fill="#5C846D" stroke="black" stroke-width="30" stroke-linecap="round"/>
<circle cx="540.263" cy="392.422" r="23.5" transform="rotate(18.3635 540.263 392.422)" fill="black"/>
<path d="M19.6929 175.904C54.5142 214.632 151.268 154.156 151.268 154.156C151.268 154.156 33.2854 398.821 312.747 393.928C592.209 389.034 459.002 154.156 459.002 154.156C459.002 154.156 557.896 214.641 595.471 175.904C641.339 128.619 526.565 96.5243 469.333 63.9022C403.529 26.3942 358.452 6.11613 282.844 10.6196C220.167 14.3528 184.188 30.2953 131.151 63.9022C79.0275 96.9306 -21.5649 130.018 19.6929 175.904Z" fill="#CBB394" stroke="black" stroke-width="19" stroke-linecap="round"/>
<path d="M325.593 279.96C331.593 267.96 282.593 265.459 285.093 279.96C287.592 294.46 308.093 297.46 308.093 297.46C308.093 297.46 319.592 291.96 325.593 279.96Z" fill="black" stroke="black" stroke-width="10"/>
<circle cx="234" cy="202" r="13" fill="black"/>
<circle cx="378" cy="202" r="13" fill="black"/>
<ellipse cx="308.5" cy="346.5" rx="10.5" ry="25.5" fill="black"/>
</svg>
