<svg width="274" height="110" viewBox="0 0 274 110" fill="none" xmlns="http://www.w3.org/2000/svg">
<path d="M197.198 4.70152C186.653 4.18473 180.414 25.8478 180.414 25.8478C180.414 25.8478 167.286 59.8675 176.594 78.0964C191.982 108.231 242.561 111.256 263.157 84.3961C276.659 66.7872 267.296 27.7726 267.296 27.7726C267.296 27.7726 263.158 9.68984 254.196 8.84968C245.08 7.99499 237.857 25.6302 237.857 25.6302L212.803 23.8068C212.803 23.8068 206.832 5.17372 197.198 4.70152Z" fill="#D9D9D9" stroke="black" stroke-width="4.77672"/>
<path d="M208.851 44.5441C201.091 42.849 183.7 40.1386 181.484 50.8585C179.062 62.5694 200.626 63.3166 210.569 60.6204C220.513 57.9242 216.612 46.2393 208.851 44.5441Z" fill="black"/>
<path d="M252.695 47.7355C244.935 46.0404 227.544 43.3301 225.328 54.0499C222.906 65.7608 244.469 66.508 254.413 63.8118C264.356 61.1156 260.455 49.4307 252.695 47.7355Z" fill="black"/>
<path d="M214.684 53.9727L227.587 54.9117" stroke="black" stroke-width="2.51407"/>
<path d="M225.129 69.5621C226.852 66.6715 214.621 65.153 214.982 68.8236C215.343 72.4941 220.425 73.6178 220.425 73.6178C220.425 73.6178 223.406 72.4526 225.129 69.5621Z" fill="black" stroke="black" stroke-width="2.51407"/>
<path d="M258.428 29.2624L246.402 28.3872C246.402 28.3872 248.906 18.2599 253.521 18.8525C257.987 19.4257 258.428 29.2624 258.428 29.2624Z" fill="#FCDFFF" stroke="black" stroke-width="2.51407"/>
<path d="M201.982 24.4031L189.956 23.5279C189.956 23.5279 192.46 13.4005 197.076 13.9931C201.542 14.5664 201.982 24.4031 201.982 24.4031Z" fill="#FCDFFF" stroke="black" stroke-width="2.51407"/>
<path d="M217.168 84.9254C221.276 85.6523 227.32 83.1904 227.32 83.1904" stroke="black" stroke-width="2.51407" stroke-linecap="round"/>
<path d="M6.5805 55.7853C16.1916 64.4945 38.6654 47.0983 38.6654 47.0983C38.6654 47.0983 15.5634 110.609 84.7504 102.378C153.937 94.1469 114.987 39.3682 114.987 39.3682C114.987 39.3682 141.037 51.8522 149.381 41.3222C159.566 28.4685 130.293 23.409 115.277 16.7737C98.013 9.1446 86.3229 5.25869 67.6843 8.27238C52.2337 10.7706 43.7118 15.6197 31.4041 25.2685C19.3081 34.7513 -4.80713 45.4662 6.5805 55.7853Z" fill="#CBB394" stroke="black" stroke-width="4.74019" stroke-linecap="round"/>
<path d="M85.0682 73.8513C86.2544 70.7309 74.0388 71.3431 75.0237 74.8687C76.0086 78.3942 81.1685 78.6216 81.1685 78.6216C81.1685 78.6216 83.882 76.9717 85.0682 73.8513Z" fill="black" stroke="black" stroke-width="2.49484"/>
<path d="M72.8173 82.9779C79.1547 91.0867 80.6385 79.8106 80.6385 79.8106C80.6385 79.8106 84.2245 89.1981 90.3022 81.207" stroke="black" stroke-width="2.49484" stroke-linecap="round"/>
<path d="M67.1453 52.1771C60.2602 51.8915 44.9944 52.1813 44.7139 61.672C44.4074 72.04 62.9424 69.4479 71.032 65.6546C79.1216 61.8614 74.0304 52.4628 67.1453 52.1771Z" fill="black"/>
<path d="M105.083 48.3353C98.1977 48.0497 82.9319 48.3395 82.6514 57.8302C82.3449 68.1982 100.88 65.6061 108.969 61.8129C117.059 58.0196 111.968 48.621 105.083 48.3353Z" fill="black"/>
<path d="M73.543 59.3613L84.7084 58.2305" stroke="black" stroke-width="2.18082"/>
</svg>
