<svg width="338" height="124" viewBox="0 0 338 124" fill="none" xmlns="http://www.w3.org/2000/svg">
<path d="M320.664 41.1071L314.507 11.6129C314.149 9.90138 315.363 8.26058 317.104 8.10141L329.541 6.96455C331.348 6.79939 332.868 8.30151 332.724 10.1101L330.288 40.7412C330.167 42.2623 328.897 43.435 327.372 43.435H323.528C322.143 43.435 320.947 42.4633 320.664 41.1071Z" fill="#5C846D" stroke="black" stroke-width="8.77723" stroke-linecap="round"/>
<path d="M222.194 3.00249C209.902 3.29363 204.493 28.9866 204.493 28.9866C204.493 28.9866 192.133 69.6164 204.493 90.0055C224.926 123.711 283.935 122.95 305.578 90.0055C319.766 68.4082 305.578 23.8774 305.578 23.8774C305.578 23.8774 299.236 3.22084 288.755 3.00249C278.092 2.78037 271.2 23.8774 271.2 23.8774H241.943C241.943 23.8774 233.426 2.73648 222.194 3.00249Z" fill="#D9D9D9" stroke="black" stroke-width="5.55891"/>
<path d="M260.15 75.9879C261.905 72.4844 247.569 71.7544 248.301 75.9879C249.032 80.2214 255.03 81.0971 255.03 81.0971C255.03 81.0971 258.394 79.4914 260.15 75.9879Z" fill="black" stroke="black" stroke-width="2.92574"/>
<path d="M295.403 26.3556H281.359C281.359 26.3556 283.408 14.3792 288.82 14.6773C294.056 14.9658 295.403 26.3556 295.403 26.3556Z" fill="#FCDFFF" stroke="black" stroke-width="2.92574"/>
<path d="M229.426 25.4865H215.383C215.383 25.4865 217.432 13.5101 222.843 13.8082C228.079 14.0966 229.426 25.4865 229.426 25.4865Z" fill="#FCDFFF" stroke="black" stroke-width="2.92574"/>
<ellipse cx="226.21" cy="57.3032" rx="3.80347" ry="3.79543" fill="black"/>
<ellipse cx="284.432" cy="57.3032" rx="3.80347" ry="3.79543" fill="black"/>
<ellipse cx="255.318" cy="96.5718" rx="3.07203" ry="7.44489" fill="black"/>
<ellipse cx="326.125" cy="57.1579" rx="6.8755" ry="6.86098" fill="black"/>
<path d="M158.361 98.2369L161.838 68.1286C162.039 66.3864 163.712 65.2089 165.419 65.6077L177.604 68.4535C179.377 68.8675 180.35 70.7792 179.642 72.4566L167.629 100.931C167.034 102.342 165.454 103.058 164.001 102.575L160.353 101.362C159.033 100.924 158.202 99.6188 158.361 98.2369Z" fill="#5C846D" stroke="black" stroke-width="8.80791" stroke-linecap="round"/>
<ellipse cx="6.89142" cy="6.89864" rx="6.89142" ry="6.89864" transform="matrix(0.948954 0.315415 -0.314673 0.9492 154.105 106.557)" fill="black"/>
<path d="M5.84208 51.709C16.0522 63.0795 44.4218 45.3239 44.4218 45.3239C44.4218 45.3239 9.82759 117.157 91.7697 115.72C173.712 114.283 134.654 45.3239 134.654 45.3239C134.654 45.3239 163.651 63.082 174.668 51.709C188.117 37.8262 154.464 28.4033 137.683 18.8255C118.388 7.8133 105.171 1.85971 83.0015 3.18191C64.6238 4.27796 54.0743 8.95865 38.5232 18.8255C23.2398 28.5226 -6.25527 38.2369 5.84208 51.709Z" fill="#CBB394" stroke="black" stroke-width="5.57834" stroke-linecap="round"/>
<path d="M95.5312 82.2581C97.2907 78.7349 82.9232 78.0009 83.656 82.2581C84.3889 86.5154 90.4 87.3961 90.4 87.3961C90.4 87.3961 93.7717 85.7814 95.5312 82.2581Z" fill="black" stroke="black" stroke-width="2.93597"/>
<ellipse cx="68.6809" cy="59.3714" rx="3.81178" ry="3.81676" fill="black"/>
<ellipse cx="110.902" cy="59.3714" rx="3.81178" ry="3.81676" fill="black"/>
<ellipse cx="90.5221" cy="101.795" rx="3.07874" ry="7.48673" fill="black"/>
</svg>
