<svg width="530" height="247" viewBox="0 0 530 247" fill="none" xmlns="http://www.w3.org/2000/svg">
<ellipse cx="77.4147" cy="73.4335" rx="77.4147" ry="73.4335" transform="matrix(0.995365 -0.0961725 0.0973974 0.995246 0 81.9258)" fill="white"/>
<ellipse cx="77.4147" cy="73.4335" rx="77.4147" ry="73.4335" transform="matrix(0.995355 -0.0962776 0.097291 0.995256 238.736 99.9102)" fill="white"/>
<ellipse cx="77.4147" cy="73.4335" rx="77.4147" ry="73.4335" transform="matrix(0.995355 -0.0962776 0.097291 0.995256 101.887 99.9102)" fill="white"/>
<ellipse cx="77.4147" cy="73.4335" rx="77.4147" ry="73.4335" transform="matrix(0.995355 -0.0962776 0.097291 0.995256 361.602 93.916)" fill="white"/>
<ellipse cx="77.4147" cy="73.4335" rx="77.4147" ry="73.4335" transform="matrix(0.995355 -0.0962776 0.097291 0.995256 290.68 37.9648)" fill="white"/>
<ellipse cx="77.4147" cy="73.4335" rx="77.4147" ry="73.4335" transform="matrix(0.995355 -0.0962776 0.097291 0.995256 198.781 14.9863)" fill="white"/>
<ellipse cx="77.4147" cy="73.4335" rx="77.4147" ry="73.4335" transform="matrix(0.995355 -0.0962776 0.097291 0.995256 88.9023 34.9688)" fill="white"/>
<path d="M309.893 85.4519C299.34 84.9336 293.096 106.661 293.096 106.661C293.096 106.661 279.958 140.783 289.273 159.066C304.673 189.291 355.292 192.325 375.904 165.385C389.417 147.723 380.047 108.592 380.047 108.592C380.047 108.592 375.905 90.4552 366.937 89.6125C357.813 88.7553 350.585 106.443 350.585 106.443L325.51 104.614C325.51 104.614 319.535 85.9255 309.893 85.4519Z" fill="#D9D9D9" stroke="black" stroke-width="4.77672"/>
<path d="M321.557 125.414C313.791 123.713 296.387 120.995 294.168 131.747C291.745 143.493 313.325 144.242 323.276 141.538C333.228 138.834 329.324 127.114 321.557 125.414Z" fill="black"/>
<path d="M365.432 128.615C357.666 126.915 340.262 124.196 338.043 134.948C335.62 146.694 357.2 147.443 367.151 144.739C377.103 142.035 373.199 130.315 365.432 128.615Z" fill="black"/>
<path d="M327.395 134.871L340.308 135.813" stroke="black" stroke-width="2.51407"/>
<path d="M337.85 150.507C339.574 147.608 327.333 146.085 327.695 149.767C328.056 153.448 333.142 154.575 333.142 154.575C333.142 154.575 336.125 153.406 337.85 150.507Z" fill="black" stroke="black" stroke-width="2.51407"/>
<path d="M371.171 110.086L359.135 109.208C359.135 109.208 361.641 99.0506 366.261 99.6449C370.73 100.22 371.171 110.086 371.171 110.086Z" fill="#FCDFFF" stroke="black" stroke-width="2.51407"/>
<path d="M314.683 105.213L302.647 104.335C302.647 104.335 305.153 94.1775 309.772 94.7718C314.241 95.3468 314.683 105.213 314.683 105.213Z" fill="#FCDFFF" stroke="black" stroke-width="2.51407"/>
<path d="M329.88 165.915C333.992 166.644 340.041 164.174 340.041 164.174" stroke="black" stroke-width="2.51407" stroke-linecap="round"/>
<path d="M119.129 136.689C128.747 145.424 151.239 127.976 151.239 127.976C151.239 127.976 128.119 191.676 197.36 183.42C266.602 175.165 227.621 120.222 227.621 120.222C227.621 120.222 253.691 132.744 262.041 122.182C272.235 109.29 242.938 104.215 227.911 97.5603C210.633 89.9084 198.934 86.0109 180.281 89.0336C164.818 91.5393 156.289 96.4028 143.972 106.081C131.866 115.592 107.732 126.339 119.129 136.689Z" fill="#CBB394" stroke="black" stroke-width="4.74019" stroke-linecap="round"/>
<path d="M197.678 154.809C198.865 151.679 186.64 152.293 187.625 155.829C188.611 159.365 193.775 159.593 193.775 159.593C193.775 159.593 196.491 157.939 197.678 154.809Z" fill="black" stroke="black" stroke-width="2.49484"/>
<path d="M185.419 163.963C191.761 172.096 193.246 160.787 193.246 160.787C193.246 160.787 196.835 170.202 202.918 162.187" stroke="black" stroke-width="2.49484" stroke-linecap="round"/>
<path d="M179.741 133.069C172.85 132.783 157.572 133.073 157.292 142.592C156.985 152.991 175.534 150.391 183.63 146.587C191.726 142.782 186.631 133.356 179.741 133.069Z" fill="black"/>
<path d="M217.709 129.216C210.819 128.929 195.541 129.22 195.26 138.739C194.954 149.138 213.503 146.538 221.599 142.733C229.695 138.929 224.6 129.502 217.709 129.216Z" fill="black"/>
<path d="M186.146 140.275L197.32 139.141" stroke="black" stroke-width="2.18082"/>
</svg>
