<svg width="549" height="130" viewBox="0 0 549 130" fill="none" xmlns="http://www.w3.org/2000/svg">
<path d="M56.418 13.459H43.1855V8.50293H56.418V13.459ZM56.418 23.3711H43.1855V18.293H56.418V23.3711ZM60.7393 27.668H54.5381V3.00977H60.7393V27.668ZM35.6904 5.42676C37.8877 5.41048 39.8734 5.84993 41.6475 6.74512C43.4378 7.6403 44.8538 8.89355 45.8955 10.5049C46.9372 12.1162 47.458 13.931 47.458 15.9492C47.458 17.9674 46.9372 19.7822 45.8955 21.3936C44.8538 22.9886 43.4378 24.2337 41.6475 25.1289C39.8734 26.0078 37.8877 26.4554 35.6904 26.4717C33.4281 26.4554 31.3936 26.0078 29.5869 25.1289C27.7965 24.2337 26.3887 22.9886 25.3633 21.3936C24.3542 19.7822 23.8496 17.9674 23.8496 15.9492C23.8496 13.931 24.3542 12.1162 25.3633 10.5049C26.3887 8.89355 27.7965 7.6403 29.5869 6.74512C31.3936 5.84993 33.4281 5.41048 35.6904 5.42676ZM35.6904 10.5293C34.5348 10.513 33.5094 10.7246 32.6143 11.1641C31.7191 11.5872 31.0192 12.2139 30.5146 13.0439C30.0101 13.8577 29.7578 14.8262 29.7578 15.9492C29.7578 17.0397 30.0101 17.9919 30.5146 18.8057C31.0192 19.6195 31.7191 20.2461 32.6143 20.6855C33.5094 21.125 34.5348 21.3447 35.6904 21.3447C36.8135 21.3447 37.8063 21.125 38.6689 20.6855C39.5479 20.2461 40.2396 19.6195 40.7441 18.8057C41.2487 17.9919 41.501 17.0397 41.501 15.9492C41.501 14.8262 41.2487 13.8577 40.7441 13.0439C40.2396 12.2301 39.5479 11.6035 38.6689 11.1641C37.8063 10.7246 36.8135 10.513 35.6904 10.5293ZM61.0811 34.4307H30.2949V29.4746H61.0811V34.4307ZM61.5938 46.833H29.7334V41.8281H61.5938V46.833ZM42.0625 44.7334H35.959V31.2812H42.0625V44.7334ZM55.4658 44.7334H49.3379V31.2812H55.4658V44.7334ZM80.9053 6.0127C83.2327 6.0127 85.3324 6.4847 87.2041 7.42871C89.0758 8.35645 90.5407 9.65039 91.5986 11.3105C92.6729 12.9544 93.21 14.8262 93.21 16.9258C93.21 19.0254 92.6729 20.9053 91.5986 22.5654C90.5407 24.2093 89.0758 25.5033 87.2041 26.4473C85.3486 27.375 83.249 27.8389 80.9053 27.8389C78.5941 27.8389 76.4945 27.375 74.6064 26.4473C72.7184 25.5033 71.2373 24.2093 70.1631 22.5654C69.0889 20.9053 68.5518 19.0254 68.5518 16.9258C68.5518 14.8262 69.0889 12.9544 70.1631 11.3105C71.2373 9.65039 72.7184 8.35645 74.6064 7.42871C76.4945 6.4847 78.5941 6.0127 80.9053 6.0127ZM80.9053 11.3838C79.7171 11.3838 78.6592 11.6035 77.7314 12.043C76.8037 12.4824 76.0713 13.1253 75.5342 13.9717C74.9971 14.8018 74.7285 15.7865 74.7285 16.9258C74.7285 18.0814 74.9971 19.0742 75.5342 19.9043C76.0713 20.7181 76.8037 21.3529 77.7314 21.8086C78.6592 22.248 79.7171 22.4678 80.9053 22.4678C82.0934 22.4678 83.1595 22.248 84.1035 21.8086C85.0638 21.3529 85.8044 20.7181 86.3252 19.9043C86.8623 19.0742 87.1309 18.0814 87.1309 16.9258C87.1309 15.7865 86.8623 14.8018 86.3252 13.9717C85.8044 13.1253 85.0638 12.4824 84.1035 12.043C83.1595 11.6035 82.0934 11.3838 80.9053 11.3838ZM103.83 47.6143H97.6533V3.00977H103.83V47.6143ZM67.3799 33.4541C72.7021 33.4378 77.6338 33.332 82.1748 33.1367C86.7158 32.9414 91.0371 32.5752 95.1387 32.0381L95.5781 36.5059C92.5671 37.0918 89.4258 37.5312 86.1543 37.8242C82.8828 38.1172 79.8066 38.3044 76.9258 38.3857C74.0612 38.4671 70.8955 38.5078 67.4287 38.5078L66.6963 33.4541H67.3799ZM142.526 12.4824H123.239V7.50195H142.526V12.4824ZM135.202 35.3096H129.074V20.2217H135.202V35.3096ZM146.262 11.8965C146.245 14.6146 146.164 17.2269 146.018 19.7334C145.871 22.2399 145.554 25.0312 145.065 28.1074L138.938 27.5947C139.426 24.4046 139.735 21.5889 139.865 19.1475C139.995 16.6898 140.061 13.988 140.061 11.042V7.50195H146.262V11.042V11.8965ZM156.467 47.4922H150.192V3.00977H156.467V47.4922ZM162.497 26.1055H154.611V20.9053H162.497V26.1055ZM121.53 33.4541C126.787 33.4053 131.573 33.2913 135.886 33.1123C140.199 32.9333 144.268 32.6077 148.093 32.1357L148.459 36.75C144.357 37.4336 140.052 37.8893 135.544 38.1172C131.052 38.3451 126.372 38.4427 121.506 38.4102L120.896 33.4541H121.53ZM197.36 18.9277H188.815V13.874H197.36V18.9277ZM201.95 29.4502H195.749V3.00977H201.95V29.4502ZM186.765 30.4268C189.938 30.4268 192.673 30.7686 194.968 31.4521C197.263 32.1195 199.021 33.096 200.241 34.3818C201.478 35.6676 202.097 37.2057 202.097 38.9961C202.097 40.7702 201.478 42.292 200.241 43.5615C199.021 44.8473 197.263 45.832 194.968 46.5156C192.673 47.1992 189.938 47.5492 186.765 47.5654C183.623 47.5492 180.905 47.1992 178.61 46.5156C176.332 45.832 174.574 44.8473 173.337 43.5615C172.116 42.292 171.506 40.7702 171.506 38.9961C171.506 37.2057 172.116 35.6676 173.337 34.3818C174.574 33.096 176.332 32.1195 178.61 31.4521C180.905 30.7686 183.623 30.4268 186.765 30.4268ZM186.765 35.1631C184.812 35.1631 183.16 35.3014 181.809 35.5781C180.458 35.8548 179.432 36.278 178.732 36.8477C178.033 37.4173 177.683 38.1335 177.683 38.9961C177.683 39.8099 178.033 40.5098 178.732 41.0957C179.432 41.6654 180.458 42.0967 181.809 42.3896C183.16 42.6663 184.812 42.8047 186.765 42.8047C188.767 42.8047 190.443 42.6663 191.794 42.3896C193.145 42.0967 194.162 41.6654 194.846 41.0957C195.529 40.5098 195.871 39.8099 195.871 38.9961C195.871 38.1335 195.529 37.4173 194.846 36.8477C194.162 36.278 193.145 35.8548 191.794 35.5781C190.443 35.3014 188.767 35.1631 186.765 35.1631ZM180.002 10.4316C180.002 13.3125 179.538 16.0143 178.61 18.5371C177.683 21.0599 176.275 23.2816 174.387 25.2021C172.515 27.1064 170.212 28.5306 167.478 29.4746L164.23 24.5186C166.607 23.721 168.592 22.5898 170.188 21.125C171.799 19.6439 172.987 17.9837 173.752 16.1445C174.533 14.2891 174.924 12.3848 174.924 10.4316V7.50195H180.002V10.4316ZM181.271 10.3828C181.271 12.1895 181.638 13.9391 182.37 15.6318C183.119 17.3245 184.258 18.8545 185.788 20.2217C187.318 21.5889 189.222 22.6549 191.501 23.4199L188.425 28.3027C185.739 27.4238 183.477 26.0892 181.638 24.2988C179.815 22.4922 178.456 20.3926 177.561 18C176.665 15.6074 176.218 13.0684 176.218 10.3828V7.50195H181.271V10.3828ZM190.134 10.749H166.013V5.71973H190.134V10.749ZM227.976 3.69336C231.394 3.69336 234.307 3.98633 236.716 4.57227C239.125 5.14193 240.956 5.99642 242.209 7.13574C243.479 8.25879 244.113 9.62598 244.113 11.2373C244.113 12.8649 243.479 14.2565 242.209 15.4121C240.956 16.5514 239.125 17.4141 236.716 18C234.307 18.5859 231.394 18.8789 227.976 18.8789C224.558 18.8789 221.636 18.5859 219.211 18C216.802 17.4141 214.955 16.5514 213.669 15.4121C212.399 14.2565 211.765 12.8649 211.765 11.2373C211.765 9.62598 212.399 8.25879 213.669 7.13574C214.955 5.99642 216.802 5.14193 219.211 4.57227C221.636 3.98633 224.558 3.69336 227.976 3.69336ZM227.976 8.23438C225.811 8.23438 224.012 8.34831 222.58 8.57617C221.148 8.78776 220.074 9.12142 219.357 9.57715C218.658 10.0329 218.308 10.5863 218.308 11.2373C218.308 11.9697 218.649 12.5638 219.333 13.0195C220.033 13.459 221.083 13.7845 222.482 13.9961C223.882 14.2077 225.713 14.3135 227.976 14.3135C230.271 14.3135 232.118 14.2077 233.518 13.9961C234.917 13.7845 235.959 13.459 236.643 13.0195C237.342 12.5638 237.692 11.9697 237.692 11.2373C237.692 10.5863 237.334 10.041 236.618 9.60156C235.918 9.14583 234.852 8.80404 233.42 8.57617C231.988 8.34831 230.173 8.23438 227.976 8.23438ZM248.264 25.9346H207.736V21.0029H248.264V25.9346ZM243.308 39.8262H218.552V43.8301H212.424V35.4805H237.155V33.0391H212.399V28.4736H243.308V39.8262ZM244.479 47.1748H212.424V42.5117H244.479V47.1748ZM277.658 12.1406C277.658 14.7448 277.194 17.1699 276.267 19.416C275.339 21.6458 273.931 23.5827 272.043 25.2266C270.171 26.8542 267.852 28.0505 265.085 28.8154L262.131 23.9814C264.458 23.363 266.411 22.4434 267.99 21.2227C269.585 19.9857 270.765 18.5941 271.53 17.0479C272.295 15.5016 272.678 13.8659 272.678 12.1406V10.5293H277.658V12.1406ZM278.854 12.1406C278.854 13.7194 279.229 15.2331 279.978 16.6816C280.743 18.1139 281.906 19.4079 283.469 20.5635C285.031 21.7028 286.968 22.5898 289.279 23.2246L286.423 28.0342C283.656 27.3018 281.328 26.1543 279.44 24.5918C277.552 23.013 276.136 21.1576 275.192 19.0254C274.265 16.8932 273.801 14.5983 273.801 12.1406V10.5293H278.854V12.1406ZM287.814 12.4092H263.718V7.50195H287.814V12.4092ZM278.928 9.65039H272.678V2.86328H278.928V9.65039ZM297.751 29.084H291.525V3.00977H297.751V29.084ZM303.757 18.5859H295.993V13.4834H303.757V18.5859ZM297.751 47.0039H268.698V30.9395H297.751V47.0039ZM274.875 41.999H291.599V35.8467H274.875V41.999ZM338.352 11.8232H309.885V6.8916H338.352V11.8232ZM346.262 42.0479H305.734V36.9941H346.262V42.0479ZM326.413 39.582H320.236V21.7109H326.413V39.582ZM342.307 11.7256C342.307 15.3714 342.201 18.7161 341.989 21.7598C341.794 24.8034 341.322 28.3434 340.573 32.3799L334.25 31.7207C335.031 27.9772 335.528 24.5918 335.739 21.5645C335.951 18.5371 336.057 15.2493 336.057 11.7012V11.1152V6.8916H342.307V11.1152V11.7256ZM370.358 14.7773H348.85V9.82129H370.358V14.7773ZM359.689 16.7793C361.577 16.7793 363.262 17.2269 364.743 18.1221C366.224 19.0173 367.38 20.2624 368.21 21.8574C369.04 23.4525 369.455 25.2754 369.455 27.3262C369.455 29.377 369.04 31.208 368.21 32.8193C367.38 34.4144 366.224 35.6676 364.743 36.5791C363.262 37.4906 361.577 37.9463 359.689 37.9463C357.818 37.9463 356.141 37.4906 354.66 36.5791C353.179 35.6676 352.015 34.4062 351.169 32.7949C350.339 31.1836 349.924 29.3607 349.924 27.3262C349.924 25.3079 350.339 23.4932 351.169 21.8818C352.015 20.2705 353.179 19.0173 354.66 18.1221C356.141 17.2269 357.818 16.7793 359.689 16.7793ZM359.689 21.9551C358.859 21.9388 358.111 22.1504 357.443 22.5898C356.792 23.013 356.288 23.6315 355.93 24.4453C355.588 25.2591 355.417 26.2194 355.417 27.3262C355.417 28.4167 355.596 29.3688 355.954 30.1826C356.312 30.9801 356.817 31.5905 357.468 32.0137C358.119 32.4368 358.859 32.6484 359.689 32.6484C360.536 32.6484 361.276 32.4368 361.911 32.0137C362.562 31.5905 363.075 30.9801 363.449 30.1826C363.824 29.3688 364.011 28.4167 364.011 27.3262C364.011 26.2194 363.824 25.2591 363.449 24.4453C363.075 23.6315 362.562 23.013 361.911 22.5898C361.276 22.1504 360.536 21.9388 359.689 21.9551ZM387.351 47.4922H381.418V3.00977H387.351V47.4922ZM383.396 26.1055H375.925V21.1494H383.396V26.1055ZM377.829 45.5879H371.994V3.9375H377.829V45.5879ZM362.741 12.9463H356.613V4.2793H362.741V12.9463ZM426.584 22.0527H414.743V17.0479H426.584V22.0527ZM407.688 13.0928C407.688 16.9014 407.24 20.474 406.345 23.8105C405.45 27.1471 404.082 30.1012 402.243 32.6729C400.404 35.2445 398.125 37.2139 395.407 38.5811L391.501 33.4785C393.942 32.3717 395.993 30.7604 397.653 28.6445C399.33 26.5286 400.575 24.1361 401.389 21.4668C402.219 18.7975 402.634 16.0062 402.634 13.0928V6.45215H407.688V13.0928ZM408.957 13.0928C408.957 16.0062 409.348 18.7568 410.129 21.3447C410.91 23.9163 412.106 26.2031 413.718 28.2051C415.329 30.207 417.331 31.737 419.724 32.7949L415.915 37.7754C413.246 36.457 411.016 34.5771 409.226 32.1357C407.451 29.6781 406.125 26.8379 405.246 23.6152C404.383 20.3926 403.952 16.8851 403.952 13.0928V6.45215H408.957V13.0928ZM429.636 47.6143H423.459V3.00977H429.636V47.6143ZM38.8887 127.614H32.5654V83.0098H38.8887V127.614ZM14.7432 86.1592C16.973 86.1592 18.9749 86.8102 20.749 88.1123C22.5394 89.4144 23.931 91.2617 24.9238 93.6543C25.9329 96.0469 26.4375 98.8301 26.4375 102.004C26.4375 105.194 25.9329 107.985 24.9238 110.378C23.931 112.771 22.5394 114.618 20.749 115.92C18.9749 117.206 16.973 117.849 14.7432 117.849C12.4808 117.849 10.4544 117.206 8.66406 115.92C6.88997 114.618 5.49837 112.771 4.48926 110.378C3.48014 107.985 2.97559 105.194 2.97559 102.004C2.97559 98.8301 3.48014 96.0469 4.48926 93.6543C5.49837 91.2617 6.88997 89.4144 8.66406 88.1123C10.4544 86.8102 12.4808 86.1592 14.7432 86.1592ZM14.7432 91.7988C13.6038 91.7826 12.5947 92.1732 11.7158 92.9707C10.8532 93.752 10.1859 94.9157 9.71387 96.4619C9.25814 97.9919 9.03027 99.8392 9.03027 102.004C9.03027 104.169 9.25814 106.016 9.71387 107.546C10.1859 109.076 10.8532 110.24 11.7158 111.037C12.5947 111.818 13.6038 112.209 14.7432 112.209C15.8662 112.209 16.859 111.818 17.7217 111.037C18.5843 110.24 19.2516 109.076 19.7236 107.546C20.1956 106.016 20.4316 104.169 20.4316 102.004C20.4316 99.8392 20.1956 97.9919 19.7236 96.4619C19.2516 94.9157 18.5843 93.752 17.7217 92.9707C16.8753 92.1732 15.8825 91.7826 14.7432 91.7988ZM85.4951 110.817H44.8701V105.812H85.4951V110.817ZM81.125 126.735H49.6064V121.706H81.125V126.735ZM55.8564 123.073H49.6064V113.576H55.8564V123.073ZM53.9521 89.04H58.0781V84.7188H63.8398V102.858H48.0684V84.7188H53.9521V89.04ZM58.0781 97.8779V93.8496H53.9521V97.8779H58.0781ZM72.3604 89.04H76.3154V84.7188H82.248V102.858H66.4277V84.7188H72.3604V89.04ZM76.3154 97.8779V93.8496H72.3604V97.8779H76.3154ZM116.379 116.555H110.104V109.304H116.379V116.555ZM135.227 127.492H128.928V83.0098H135.227V127.492ZM141.013 106.276H133.078V101.149H141.013V106.276ZM99.167 114.943C104.554 114.96 109.494 114.895 113.986 114.748C118.479 114.585 122.727 114.227 126.73 113.674L127.146 118.215C124.232 118.752 121.197 119.159 118.039 119.436C114.898 119.696 111.952 119.867 109.201 119.948C106.467 120.013 103.399 120.046 99.9971 120.046L99.167 114.943ZM126.364 92.873H99.9971V87.9902H126.364V92.873ZM113.303 94.6553C115.419 94.6553 117.299 95.0052 118.942 95.7051C120.586 96.4049 121.872 97.3896 122.8 98.6592C123.744 99.9124 124.216 101.361 124.216 103.005C124.216 104.616 123.744 106.057 122.8 107.326C121.872 108.579 120.586 109.564 118.942 110.28C117.299 110.98 115.419 111.33 113.303 111.33C111.171 111.33 109.274 110.98 107.614 110.28C105.954 109.564 104.66 108.579 103.732 107.326C102.821 106.073 102.365 104.632 102.365 103.005C102.365 101.361 102.821 99.9124 103.732 98.6592C104.66 97.3896 105.954 96.4049 107.614 95.7051C109.274 95.0052 111.171 94.6553 113.303 94.6553ZM113.303 99.3672C112.294 99.3672 111.407 99.5137 110.642 99.8066C109.893 100.083 109.307 100.498 108.884 101.052C108.477 101.589 108.273 102.24 108.273 103.005C108.273 103.754 108.477 104.405 108.884 104.958C109.291 105.495 109.877 105.902 110.642 106.179C111.407 106.455 112.294 106.594 113.303 106.594C114.296 106.594 115.166 106.455 115.915 106.179C116.664 105.902 117.242 105.495 117.648 104.958C118.055 104.405 118.259 103.754 118.259 103.005C118.259 102.24 118.055 101.589 117.648 101.052C117.242 100.498 116.664 100.083 115.915 99.8066C115.166 99.5137 114.296 99.3672 113.303 99.3672ZM116.379 91.5791H110.104V83.2783H116.379V91.5791ZM183.493 110.744H142.868V105.861H183.493V110.744ZM166.794 117.922H160.642V108.449H166.794V117.922ZM179.025 126.735H147.604V121.706H179.025V126.735ZM153.806 123.83H147.604V114.406H153.806V123.83ZM154.221 89.1133H172.043V84.4746H178.244V102.736H148.068V84.4746H154.221V89.1133ZM172.043 97.8291V93.7275H154.221V97.8291H172.043ZM206.369 83.6934C209.787 83.6934 212.701 83.9863 215.109 84.5723C217.518 85.1419 219.349 85.9964 220.603 87.1357C221.872 88.2588 222.507 89.626 222.507 91.2373C222.507 92.8649 221.872 94.2565 220.603 95.4121C219.349 96.5514 217.518 97.4141 215.109 98C212.701 98.5859 209.787 98.8789 206.369 98.8789C202.951 98.8789 200.03 98.5859 197.604 98C195.196 97.4141 193.348 96.5514 192.062 95.4121C190.793 94.2565 190.158 92.8649 190.158 91.2373C190.158 89.626 190.793 88.2588 192.062 87.1357C193.348 85.9964 195.196 85.1419 197.604 84.5723C200.03 83.9863 202.951 83.6934 206.369 83.6934ZM206.369 88.2344C204.204 88.2344 202.406 88.3483 200.974 88.5762C199.541 88.7878 198.467 89.1214 197.751 89.5771C197.051 90.0329 196.701 90.5863 196.701 91.2373C196.701 91.9697 197.043 92.5638 197.727 93.0195C198.426 93.459 199.476 93.7845 200.876 93.9961C202.276 94.2077 204.107 94.3135 206.369 94.3135C208.664 94.3135 210.511 94.2077 211.911 93.9961C213.311 93.7845 214.353 93.459 215.036 93.0195C215.736 92.5638 216.086 91.9697 216.086 91.2373C216.086 90.5863 215.728 90.041 215.012 89.6016C214.312 89.1458 213.246 88.804 211.813 88.5762C210.381 88.3483 208.566 88.2344 206.369 88.2344ZM226.657 105.935H186.13V101.003H226.657V105.935ZM221.701 119.826H196.945V123.83H190.817V115.48H215.549V113.039H190.793V108.474H221.701V119.826ZM222.873 127.175H190.817V122.512H222.873V127.175ZM278.244 127.492H271.921V83.0098H278.244V127.492ZM267.16 92.165H241.989V87.1602H267.16V92.165ZM240.817 112.185C245.879 112.185 250.795 112.095 255.563 111.916C260.332 111.721 264.784 111.379 268.918 110.891L269.284 115.529C265.069 116.213 260.707 116.669 256.198 116.896C251.706 117.124 246.766 117.255 241.379 117.287L240.817 112.185ZM251.95 113.552H245.944V91.042H251.95V113.552ZM263.205 113.552H257.126V91.042H263.205V113.552ZM301.34 126.198H295.017V107.985H301.34V126.198ZM322.067 127.468H315.72V83.1074H322.067V127.468ZM283.933 105.642C289.564 105.642 294.732 105.552 299.436 105.373C304.139 105.194 308.607 104.828 312.839 104.274L313.205 108.815C308.859 109.58 304.359 110.093 299.704 110.354C295.065 110.598 290.052 110.72 284.665 110.72L283.933 105.642ZM317.014 117.678H306.638V113.015H317.014V117.678ZM298.459 84.8896C300.64 84.8896 302.585 85.2803 304.294 86.0615C306.019 86.8265 307.378 87.9007 308.371 89.2842C309.364 90.6514 309.86 92.222 309.86 93.9961C309.86 95.7702 309.364 97.349 308.371 98.7324C307.395 100.116 306.044 101.19 304.318 101.955C302.593 102.704 300.64 103.078 298.459 103.078C296.262 103.078 294.292 102.704 292.551 101.955C290.826 101.19 289.475 100.116 288.498 98.7324C287.521 97.349 287.033 95.7702 287.033 93.9961C287.033 92.222 287.521 90.6514 288.498 89.2842C289.491 87.9007 290.85 86.8265 292.575 86.0615C294.317 85.2803 296.278 84.8896 298.459 84.8896ZM298.459 89.5771C297.352 89.5771 296.376 89.7643 295.529 90.1387C294.683 90.4967 294.032 91.0094 293.576 91.6768C293.137 92.3278 292.917 93.1009 292.917 93.9961C292.917 94.8913 293.145 95.6725 293.601 96.3398C294.073 96.9909 294.724 97.4873 295.554 97.8291C296.384 98.1546 297.352 98.3174 298.459 98.3174C299.549 98.3174 300.51 98.1546 301.34 97.8291C302.17 97.4873 302.813 96.9909 303.269 96.3398C303.724 95.6725 303.952 94.8913 303.952 93.9961C303.952 93.1009 303.724 92.3278 303.269 91.6768C302.813 91.0094 302.162 90.4967 301.315 90.1387C300.485 89.7643 299.533 89.5771 298.459 89.5771ZM367.966 122.316H327.341V117.287H367.966V122.316ZM350.632 118.532H344.504V107.644H350.632V118.532ZM337.888 92.7998H357.248V85.8662H363.449V109.035H331.638V85.8662H337.888V92.7998ZM357.248 104.055V97.7314H337.888V104.055H357.248ZM405.588 127.614H399.436V83.0098H405.588V127.614ZM412.18 104.982H404.221V99.8311H412.18V104.982ZM376.12 112.062C380.287 112.079 383.908 111.997 386.984 111.818C390.077 111.639 393.177 111.281 396.286 110.744L396.848 115.725C393.641 116.294 390.435 116.693 387.229 116.921C384.022 117.149 380.319 117.255 376.12 117.238H372.385V112.062H376.12ZM392.868 103.981H378.586V114.04H372.385V99.0742H386.667V91.7988H372.336V86.7695H392.868V103.981ZM454.807 93.8008H447.116V88.7227H454.807V93.8008ZM454.807 103.347H447.116V98.1465H454.807V103.347ZM448.996 109.011H442.771V83.0098H448.996V109.011ZM434.348 109.548C437.375 109.532 440.02 109.89 442.282 110.622C444.561 111.354 446.319 112.404 447.556 113.771C448.793 115.122 449.411 116.701 449.411 118.508C449.411 120.347 448.793 121.942 447.556 123.293C446.319 124.66 444.569 125.71 442.307 126.442C440.044 127.175 437.391 127.549 434.348 127.565C431.304 127.549 428.635 127.175 426.34 126.442C424.045 125.71 422.271 124.66 421.018 123.293C419.764 121.942 419.138 120.347 419.138 118.508C419.138 116.701 419.764 115.122 421.018 113.771C422.287 112.404 424.069 111.354 426.364 110.622C428.659 109.89 431.32 109.532 434.348 109.548ZM434.348 114.553C432.395 114.553 430.743 114.699 429.392 114.992C428.057 115.285 427.032 115.725 426.315 116.311C425.616 116.896 425.266 117.629 425.266 118.508C425.266 119.387 425.616 120.135 426.315 120.754C427.032 121.356 428.065 121.812 429.416 122.121C430.767 122.43 432.411 122.593 434.348 122.609C436.219 122.593 437.823 122.43 439.157 122.121C440.492 121.812 441.509 121.356 442.209 120.754C442.925 120.135 443.283 119.387 443.283 118.508C443.283 117.629 442.925 116.896 442.209 116.311C441.509 115.725 440.492 115.285 439.157 114.992C437.839 114.699 436.236 114.553 434.348 114.553ZM421.774 103.786H415.524V85.5732H421.774V103.786ZM419.333 101.198C422.718 101.198 426.031 101.06 429.27 100.783C432.525 100.507 435.804 100.035 439.108 99.3672L439.841 104.396C436.39 105.08 432.956 105.568 429.538 105.861C426.12 106.154 422.718 106.293 419.333 106.276H415.524V101.198H419.333Z" fill="black"/>
<path d="M479 129.9H549V59.9H479V129.9Z" fill="black"/>
</svg>
