<svg width="236" height="235" viewBox="0 0 236 235" fill="none" xmlns="http://www.w3.org/2000/svg">
<path d="M52.0474 6.00495C27.643 6.58417 16.9059 57.7007 16.9059 57.7007C16.9059 57.7007 -7.63235 138.534 16.9059 179.099C57.4703 246.156 174.622 244.642 217.59 179.099C245.759 136.13 217.59 47.5358 217.59 47.5358C217.59 47.5358 204.999 6.43936 184.191 6.00495C163.023 5.56303 149.34 47.5358 149.34 47.5358H91.2548C91.2548 47.5358 74.3456 5.47572 52.0474 6.00495Z" fill="#D9D9D9" stroke="black" stroke-width="11.0362"/>
<path d="M127.397 151.213C130.882 144.243 102.42 142.79 103.872 151.213C105.324 159.635 117.232 161.378 117.232 161.378C117.232 161.378 123.911 158.183 127.397 151.213Z" fill="black" stroke="black" stroke-width="5.80851"/>
<path d="M197.391 52.4676H169.51C169.51 52.4676 173.577 28.6404 184.321 29.2335C194.716 29.8074 197.391 52.4676 197.391 52.4676Z" fill="#FCDFFF" stroke="black" stroke-width="5.80851"/>
<path d="M66.4082 50.7371H38.5273C38.5273 50.7371 42.595 26.91 53.339 27.5031C63.7336 28.0769 66.4082 50.7371 66.4082 50.7371Z" fill="#FCDFFF" stroke="black" stroke-width="5.80851"/>
<path d="M111.625 188.053C121.223 189.042 134.745 182.335 134.745 182.335" stroke="black" stroke-width="5.80851" stroke-linecap="round"/>
<circle cx="60.0198" cy="114.037" r="7.55106" fill="black"/>
<circle cx="175.608" cy="114.037" r="7.55106" fill="black"/>
</svg>
