<svg width="386" height="253" viewBox="0 0 386 253" fill="none" xmlns="http://www.w3.org/2000/svg">
<path d="M12.082 110.122C33.9314 134.428 94.6417 96.4731 94.6417 96.4731C94.6417 96.4731 20.6109 250.026 195.965 246.955C371.319 243.883 287.736 96.4731 287.736 96.4731C287.736 96.4731 349.789 134.434 373.366 110.122C402.146 80.4459 330.129 60.303 294.218 39.8292C252.928 16.2891 224.644 3.56247 177.201 6.38885C137.874 8.73181 115.298 18.7374 82.0189 39.8292C49.3127 60.558 -13.8061 81.3237 12.082 110.122Z" fill="#CBB394" stroke="black" stroke-width="11.9274" stroke-linecap="round"/>
<path d="M204.678 175.166C208.473 167.737 177.477 166.189 179.059 175.166C180.64 184.143 193.608 186 193.608 186C193.608 186 200.882 182.595 204.678 175.166Z" fill="black" stroke="black" stroke-width="6.27758"/>
<path d="M126.188 110L148.375 113.03H126.188L154 112.727L127.75 115.455H153.688L124 117.576H151.5L126.188 115.455V115.455C128.978 115.67 128.975 119.754 126.188 120V120H153.062" stroke="black" stroke-width="2.51103"/>
<path d="M234.188 110L256.375 113.03H234.188L262 112.727L235.75 115.455H261.688L232 117.576H259.5L234.188 115.455V115.455C236.978 115.67 236.975 119.754 234.188 120V120H261.062" stroke="black" stroke-width="2.51103"/>
<path d="M180 206L191.732 189L206 206" stroke="black" stroke-width="6.27758" stroke-linecap="round"/>
<path d="M133.422 124C133.314 124.014 132.452 125.242 132.418 125.407C132.223 126.341 132 127.076 132 128.114C132 129.557 133.548 130.499 134.483 131.314C135.794 132.457 137.486 133.013 137.486 135.26C137.486 137.004 136.54 137.783 135.454 138.941C134.212 140.265 131.076 143.936 132.655 146.038C133.071 146.593 133.47 147.632 134.122 147.831C134.57 147.967 135.164 148.496 135.499 148.853C136.391 149.803 136.673 150.834 136.673 152.15C136.673 153.593 136.024 154.678 134.845 155.446C134.048 155.964 132.502 158.881 133.264 159.897C134.118 161.034 135.151 161.781 136.222 162.808C137.446 163.982 137.486 164.352 137.486 166.224C137.486 167.407 136.674 168.514 135.657 169.087C134.693 169.631 134.224 171.395 134.687 172.504C134.97 173.184 135.098 173.692 135.454 174.357C135.741 174.891 136.233 175.24 136.515 175.752C137.165 176.929 138.365 177.488 137.892 179" stroke="#7CB8FE" stroke-width="6.27758" stroke-linecap="round"/>
<path d="M145.422 124C145.314 124.014 144.452 125.242 144.418 125.407C144.223 126.341 144 127.076 144 128.114C144 129.557 145.548 130.499 146.483 131.314C147.794 132.457 149.486 133.013 149.486 135.26C149.486 137.004 148.54 137.783 147.454 138.941C146.212 140.265 143.076 143.936 144.655 146.038C145.071 146.593 145.47 147.632 146.122 147.831C146.57 147.967 147.164 148.496 147.499 148.853C148.391 149.803 148.673 150.834 148.673 152.15C148.673 153.593 148.024 154.678 146.845 155.446C146.048 155.964 144.502 158.881 145.264 159.897C146.118 161.034 147.151 161.781 148.222 162.808C149.446 163.982 149.486 164.352 149.486 166.224C149.486 167.407 148.674 168.514 147.657 169.087C146.693 169.631 146.224 171.395 146.687 172.504C146.97 173.184 147.098 173.692 147.454 174.357C147.741 174.891 148.233 175.24 148.515 175.752C149.165 176.929 150.365 177.488 149.892 179" stroke="#7CB8FE" stroke-width="6.27758" stroke-linecap="round"/>
<path d="M241.422 124C241.314 124.014 240.452 125.242 240.418 125.407C240.223 126.341 240 127.076 240 128.114C240 129.557 241.548 130.499 242.483 131.314C243.794 132.457 245.486 133.013 245.486 135.26C245.486 137.004 244.54 137.783 243.454 138.941C242.212 140.265 239.076 143.936 240.655 146.038C241.071 146.593 241.47 147.632 242.122 147.831C242.57 147.967 243.164 148.496 243.499 148.853C244.391 149.803 244.673 150.834 244.673 152.15C244.673 153.593 244.024 154.678 242.845 155.446C242.048 155.964 240.502 158.881 241.264 159.897C242.118 161.034 243.151 161.781 244.222 162.808C245.446 163.982 245.486 164.352 245.486 166.224C245.486 167.407 244.674 168.514 243.657 169.087C242.693 169.631 242.224 171.395 242.687 172.504C242.97 173.184 243.098 173.692 243.454 174.357C243.741 174.891 244.233 175.24 244.515 175.752C245.165 176.929 246.365 177.488 245.892 179" stroke="#7CB8FE" stroke-width="6.27758" stroke-linecap="round"/>
<path d="M253.422 124C253.314 124.014 252.452 125.242 252.418 125.407C252.223 126.341 252 127.076 252 128.114C252 129.557 253.548 130.499 254.483 131.314C255.794 132.457 257.486 133.013 257.486 135.26C257.486 137.004 256.54 137.783 255.454 138.941C254.212 140.265 251.076 143.936 252.655 146.038C253.071 146.593 253.47 147.632 254.122 147.831C254.57 147.967 255.164 148.496 255.499 148.853C256.391 149.803 256.673 150.834 256.673 152.15C256.673 153.593 256.024 154.678 254.845 155.446C254.048 155.964 252.502 158.881 253.264 159.897C254.118 161.034 255.151 161.781 256.222 162.808C257.446 163.982 257.486 164.352 257.486 166.224C257.486 167.407 256.674 168.514 255.657 169.087C254.693 169.631 254.224 171.395 254.687 172.504C254.97 173.184 255.098 173.692 255.454 174.357C255.741 174.891 256.233 175.24 256.515 175.752C257.165 176.929 258.365 177.488 257.892 179" stroke="#7CB8FE" stroke-width="6.27758" stroke-linecap="round"/>
</svg>
