<svg width="240" height="50" viewBox="0 0 240 50" fill="none" xmlns="http://www.w3.org/2000/svg">
<rect width="240" height="50" rx="20" fill="white"/>
<path d="M40.3613 30.1445V31.4336H24.4629V30.1445H31.6113V26.8633H26.4551V21.5117H36.8457V18.7773H26.416V17.5078H38.3496V22.7617H27.9785V25.5938H38.7598V26.8633H33.1152V30.1445H40.3613ZM55.4395 18.0742V19.8125C55.4395 22 55.4395 24.4805 54.7949 28.25L53.2324 28.0938C53.9355 24.5391 53.9355 21.9414 53.9355 19.8125V19.3438H43.4668V18.0742H55.4395ZM57.5684 29.7539V31.0234H41.748V29.7539H57.5684ZM73.3691 16.2383V28.9336H71.8457V16.2383H73.3691ZM73.916 31.9219V33.2109H62.1582V27.6445H63.6816V31.9219H73.916ZM63.9941 17.4492C66.5918 17.4492 68.5449 19.207 68.5449 21.707C68.5449 24.2461 66.5918 25.9844 63.9941 25.9844C61.3965 25.9844 59.4434 24.2461 59.4434 21.707C59.4434 19.207 61.3965 17.4492 63.9941 17.4492ZM63.9941 18.7969C62.2363 18.7969 60.9277 20.0078 60.9473 21.707C60.9277 23.4453 62.2363 24.6367 63.9941 24.6367C65.7129 24.6367 67.041 23.4453 67.041 21.707C67.041 20.0078 65.7129 18.7969 63.9941 18.7969ZM91.2012 16.2188V33.582H89.7168V16.2188H91.2012ZM87.7051 16.5898V32.7031H86.2402V24.2656H84.0137C83.8477 27.6445 82.4121 29.7539 80.2637 29.7539C77.998 29.7539 76.5332 27.4102 76.5332 23.7188C76.5332 20.0273 77.998 17.6836 80.2637 17.6836C82.373 17.6836 83.7988 19.7246 83.9941 22.9961H86.2402V16.5898H87.7051ZM80.2637 19.1289C78.8574 19.1289 77.959 20.8867 77.9785 23.7188C77.959 26.5312 78.8574 28.3086 80.2637 28.2891C81.6699 28.3086 82.5684 26.5312 82.5684 23.7188C82.5684 20.8867 81.6699 19.1289 80.2637 19.1289ZM114.502 25.1055V26.375H107.432V29.9297H105.908V26.375H98.6035V25.1055H114.502ZM112.432 17.0781V23.1133H100.674V17.0781H112.432ZM102.178 18.2891V21.8828H110.908V18.2891H102.178ZM112.725 31.9219V33.2109H100.635V28.2109H102.178V31.9219H112.725ZM130.752 16.2188V33.582H129.287V16.2188H130.752ZM127.236 16.6484V32.6836H125.791V23.7383H122.861V22.4883H125.791V16.6484H127.236ZM121.006 21.1797C121.006 24.1875 122.354 27.1758 124.756 28.5625L123.818 29.6953C122.109 28.6699 120.898 26.7949 120.303 24.5781C119.668 26.9707 118.408 29.0117 116.67 30.1055L115.693 28.9531C118.115 27.5078 119.521 24.3438 119.521 21.1797V19.5391H116.182V18.2695H124.189V19.5391H121.006V21.1797ZM146.631 16.2188V23.2891H149.443V24.5781H146.631V33.582H145.107V16.2188H146.631ZM142.139 18.0938C142.139 23.0156 139.834 27.4883 134.17 30.2812L133.311 29.0703C137.803 26.834 140.244 23.4941 140.596 19.3828H134.111V18.0938H142.139ZM161.377 27.8789C161.377 29.4121 162.197 31.043 163.857 31.9805C165.498 30.9551 166.377 29.2266 166.377 27.8789V26.9219H167.881V27.8789C167.881 29.6562 169.189 31.4531 171.416 32.2148L170.654 33.3477C168.916 32.7324 167.695 31.5215 167.1 30.0664C166.562 31.4727 165.498 32.8008 163.896 33.4844C162.207 32.8398 161.133 31.5605 160.615 30.1055C160 31.5117 158.799 32.7227 157.139 33.3477L156.357 32.2148C158.545 31.3945 159.873 29.5391 159.893 27.8789V26.9219H161.377V27.8789ZM169.834 16.2383V26.1602H168.311V16.2383H169.834ZM160.459 17.2539C163.096 17.2539 165.01 18.8945 165.01 21.3164C165.01 23.6992 163.096 25.3398 160.459 25.3398C157.822 25.3398 155.908 23.6992 155.908 21.3164C155.908 18.8945 157.822 17.2539 160.459 17.2539ZM160.459 18.5625C158.682 18.543 157.393 19.6953 157.412 21.3164C157.393 22.918 158.682 24.0508 160.459 24.0703C162.217 24.0508 163.506 22.918 163.506 21.3164C163.506 19.6953 162.217 18.543 160.459 18.5625ZM189.033 23.1523V24.4414H186.221V33.582H184.697V16.2188H186.221V23.1523H189.033ZM175.029 17.9375V27.8789C177.568 27.8691 180.156 27.6738 183.018 27.0781L183.213 28.3867C180.225 28.9922 177.529 29.168 174.893 29.168H173.506V17.9375H175.029ZM205.967 30.0664V31.3555H190.068V30.0664H194.014V25.3789C192.529 24.6074 191.631 23.3574 191.631 21.7852C191.631 19.0898 194.268 17.332 197.979 17.3125C201.689 17.332 204.326 19.0898 204.326 21.7852C204.326 23.3281 203.457 24.5684 202.021 25.3398V30.0664H205.967ZM197.979 18.582C195.127 18.5625 193.115 19.8516 193.115 21.7852C193.115 23.7188 195.127 25.0273 197.979 25.0273C200.811 25.0273 202.842 23.7188 202.842 21.7852C202.842 19.8516 200.811 18.5625 197.979 18.582ZM195.518 30.0664H200.479V25.9258C199.727 26.1309 198.887 26.2383 197.979 26.2383C197.09 26.2383 196.26 26.1406 195.518 25.9453V30.0664ZM210.127 27.918C210.146 25.3008 210.947 24.5 212.295 23.6797C213.096 23.1914 213.721 22.4102 213.721 21.3164C213.721 19.9883 212.686 19.1484 211.396 19.1484C210.283 19.1484 209.17 19.8125 209.053 21.4141H207.275C207.373 19.0508 209.17 17.6641 211.396 17.6641C213.838 17.6641 215.439 19.2461 215.439 21.3945C215.439 22.918 214.717 23.9922 213.506 24.7344C212.295 25.4766 211.846 26.2188 211.807 27.918V28.0156H210.127V27.918ZM211.025 32.1172C210.342 32.1172 209.756 31.5508 209.775 30.8477C209.756 30.1641 210.342 29.5977 211.025 29.5977C211.709 29.5977 212.275 30.1641 212.275 30.8477C212.275 31.5508 211.709 32.1172 211.025 32.1172Z" fill="#5C846D"/>
</svg>
