<svg width="210" height="50" viewBox="0 0 210 50" fill="none" xmlns="http://www.w3.org/2000/svg">
<rect x="1" y="1" width="208" height="48" rx="19" fill="#5C846D"/>
<rect x="1" y="1" width="208" height="48" rx="19" stroke="#5C846D" stroke-width="2"/>
<path d="M75.8789 30.1445V31.4336H59.9805V30.1445H67.1289V26.8633H61.9727V21.5117H72.3633V18.7773H61.9336V17.5078H73.8672V22.7617H63.4961V25.5938H74.2773V26.8633H68.6328V30.1445H75.8789ZM90.957 18.0742V19.8125C90.957 22 90.957 24.4805 90.3125 28.25L88.75 28.0938C89.4531 24.5391 89.4531 21.9414 89.4531 19.8125V19.3438H78.9844V18.0742H90.957ZM93.0859 29.7539V31.0234H77.2656V29.7539H93.0859ZM108.887 16.2383V28.9336H107.363V16.2383H108.887ZM109.434 31.9219V33.2109H97.6758V27.6445H99.1992V31.9219H109.434ZM99.5117 17.4492C102.109 17.4492 104.062 19.207 104.062 21.707C104.062 24.2461 102.109 25.9844 99.5117 25.9844C96.9141 25.9844 94.9609 24.2461 94.9609 21.707C94.9609 19.207 96.9141 17.4492 99.5117 17.4492ZM99.5117 18.7969C97.7539 18.7969 96.4453 20.0078 96.4648 21.707C96.4453 23.4453 97.7539 24.6367 99.5117 24.6367C101.23 24.6367 102.559 23.4453 102.559 21.707C102.559 20.0078 101.23 18.7969 99.5117 18.7969ZM130.293 16.2188V23.3867H133.203V24.6562H130.293V33.582H128.77V16.2188H130.293ZM127.09 19.0117V20.2812H116.758V19.0117H121.23V16.4336H122.754V19.0117H127.09ZM122.012 21.7266C124.473 21.7266 126.25 23.3672 126.27 25.7109C126.25 28.0547 124.473 29.6953 122.012 29.6953C119.531 29.6953 117.734 28.0547 117.754 25.7109C117.734 23.3672 119.531 21.7266 122.012 21.7266ZM122.012 23.0156C120.391 23.0156 119.199 24.1484 119.219 25.7109C119.199 27.293 120.391 28.4062 122.012 28.3867C123.613 28.4062 124.785 27.293 124.805 25.7109C124.785 24.1484 123.613 23.0156 122.012 23.0156ZM148.496 16.2188V33.582H146.953V16.2188H148.496ZM143.359 18.1133C143.34 23.1133 141.016 27.5273 135.195 30.3203L134.355 29.0703C139.053 26.8438 141.445 23.5137 141.797 19.3633H135.156V18.1133H143.359Z" fill="white"/>
</svg>
