<svg width="28" height="28" viewBox="0 0 28 28" fill="none" xmlns="http://www.w3.org/2000/svg">
<path fill-rule="evenodd" clip-rule="evenodd" d="M0 3C0 2.20435 0.316071 1.44129 0.87868 0.87868C1.44129 0.31607 2.20435 0 3 0L17 0C17.7956 0 18.5587 0.31607 19.1213 0.87868C19.6839 1.44129 20 2.20435 20 3V6.878C19.1885 7.52799 18.662 8.46843 18.532 9.5H11.5C10.9091 9.5 10.3239 9.61639 9.77793 9.84254C9.23196 10.0687 8.73588 10.4002 8.31802 10.818C7.90016 11.2359 7.56869 11.732 7.34254 12.2779C7.1164 12.8239 7 13.4091 7 14C7 14.5909 7.1164 15.1761 7.34254 15.7221C7.56869 16.268 7.90016 16.7641 8.31802 17.182C8.73588 17.5998 9.23196 17.9313 9.77793 18.1575C10.3239 18.3836 10.9091 18.5 11.5 18.5H18.532C18.662 19.5316 19.1885 20.472 20 21.122V25C20 25.7956 19.6839 26.5587 19.1213 27.1213C18.5587 27.6839 17.7956 28 17 28H3C2.20435 28 1.44129 27.6839 0.87868 27.1213C0.316071 26.5587 0 25.7956 0 25L0 3ZM21.926 8.614C21.6519 8.72754 21.4176 8.91982 21.2528 9.16653C21.0879 9.41324 21 9.70329 21 10V12H11.5C10.9696 12 10.4609 12.2107 10.0858 12.5858C9.71071 12.9609 9.5 13.4696 9.5 14C9.5 14.5304 9.71071 15.0391 10.0858 15.4142C10.4609 15.7893 10.9696 16 11.5 16H21V18C21.0003 18.2965 21.0884 18.5862 21.2532 18.8327C21.4181 19.0791 21.6522 19.2712 21.9262 19.3846C22.2001 19.498 22.5015 19.5277 22.7923 19.4699C23.0831 19.4122 23.3502 19.2695 23.56 19.06L27.56 15.06C27.8409 14.7787 27.9987 14.3975 27.9987 14C27.9987 13.6025 27.8409 13.2212 27.56 12.94L23.56 8.94C23.3504 8.73022 23.0833 8.58728 22.7924 8.52926C22.5016 8.47123 22.2001 8.50072 21.926 8.614Z" fill="#3A4E39"/>
</svg>
