<svg width="26" height="25" viewBox="0 0 26 25" fill="none" xmlns="http://www.w3.org/2000/svg">
<path d="M25.0611 23.7805C24.9788 23.9231 24.8605 24.0415 24.7179 24.1237C24.5753 24.206 24.4136 24.2493 24.249 24.2493H1.74904C1.58455 24.2491 1.42301 24.2057 1.28063 24.1233C1.13824 24.041 1.02003 23.9226 0.937861 23.7801C0.855692 23.6376 0.812458 23.476 0.8125 23.3115C0.812542 23.1471 0.855859 22.9855 0.938101 22.843C2.72287 19.7575 5.47326 17.545 8.68302 16.4962C7.09533 15.551 5.86179 14.1108 5.17184 12.3967C4.48188 10.6826 4.37367 8.78944 4.86381 7.0079C5.35395 5.22637 6.41535 3.65498 7.88501 2.53505C9.35466 1.41513 11.1513 0.808594 12.999 0.808594C14.8468 0.808594 16.6434 1.41513 18.1131 2.53505C19.5827 3.65498 20.6441 5.22637 21.1343 7.0079C21.6244 8.78944 21.5162 10.6826 20.8262 12.3967C20.1363 14.1108 18.9028 15.551 17.3151 16.4962C20.5248 17.545 23.2752 19.7575 25.06 22.843C25.1424 22.9854 25.186 23.1471 25.1862 23.3116C25.1864 23.4762 25.1433 23.6379 25.0611 23.7805Z" fill="#3A4E39"/>
</svg>
