<svg width="30" height="30" viewBox="0 0 30 30" fill="none" xmlns="http://www.w3.org/2000/svg">
<path d="M27.0611 25.7805C26.9788 25.9231 26.8605 26.0415 26.7179 26.1237C26.5753 26.206 26.4136 26.2493 26.249 26.2493H3.74904C3.58455 26.2491 3.42301 26.2057 3.28063 26.1233C3.13824 26.041 3.02003 25.9226 2.93786 25.7801C2.85569 25.6376 2.81246 25.476 2.8125 25.3115C2.81254 25.1471 2.85586 24.9855 2.9381 24.843C4.72287 21.7575 7.47326 19.545 10.683 18.4962C9.09533 17.551 7.86179 16.1108 7.17184 14.3967C6.48188 12.6826 6.37367 10.7894 6.86381 9.0079C7.35395 7.22637 8.41535 5.65498 9.88501 4.53505C11.3547 3.41513 13.1513 2.80859 14.999 2.80859C16.8468 2.80859 18.6434 3.41513 20.1131 4.53505C21.5827 5.65498 22.6441 7.22637 23.1343 9.0079C23.6244 10.7894 23.5162 12.6826 22.8262 14.3967C22.1363 16.1108 20.9028 17.551 19.3151 18.4962C22.5248 19.545 25.2752 21.7575 27.06 24.843C27.1424 24.9854 27.186 25.1471 27.1862 25.3116C27.1864 25.4762 27.1433 25.6379 27.0611 25.7805Z" fill="#3A4E39"/>
</svg>
