<svg width="30" height="30" viewBox="0 0 30 30" fill="none" xmlns="http://www.w3.org/2000/svg">
<g clip-path="url(#clip0_2019_5789)">
<path d="M15 2.5C21.9037 2.5 27.5 8.09625 27.5 15C27.5 21.9037 21.9037 27.5 15 27.5C8.09625 27.5 2.5 21.9037 2.5 15C2.5 8.09625 8.09625 2.5 15 2.5ZM15 20C14.6685 20 14.3505 20.1317 14.1161 20.3661C13.8817 20.6005 13.75 20.9185 13.75 21.25C13.75 21.5815 13.8817 21.8995 14.1161 22.1339C14.3505 22.3683 14.6685 22.5 15 22.5C15.3315 22.5 15.6495 22.3683 15.8839 22.1339C16.1183 21.8995 16.25 21.5815 16.25 21.25C16.25 20.9185 16.1183 20.6005 15.8839 20.3661C15.6495 20.1317 15.3315 20 15 20ZM15 8.125C13.7982 8.125 12.6457 8.6024 11.7959 9.45217C10.9461 10.3019 10.4688 11.4545 10.4688 12.6562C10.4688 12.9878 10.6004 13.3057 10.8349 13.5401C11.0693 13.7746 11.3872 13.9062 11.7188 13.9062C12.0503 13.9062 12.3682 13.7746 12.6026 13.5401C12.8371 13.3057 12.9688 12.9878 12.9688 12.6562C12.9692 12.2875 13.0699 11.9259 13.2602 11.6101C13.4505 11.2943 13.7232 11.0363 14.049 10.8636C14.3748 10.691 14.7414 10.6103 15.1096 10.6302C15.4778 10.6501 15.8336 10.7699 16.1389 10.9766C16.4442 11.1833 16.6875 11.4692 16.8426 11.8037C16.9978 12.1382 17.059 12.5086 17.0197 12.8752C16.9803 13.2418 16.842 13.5908 16.6194 13.8847C16.3968 14.1787 16.0984 14.4065 15.7562 14.5438C14.9112 14.8813 13.75 15.7463 13.75 17.1875V17.5C13.75 17.8315 13.8817 18.1495 14.1161 18.3839C14.3505 18.6183 14.6685 18.75 15 18.75C15.3315 18.75 15.6495 18.6183 15.8839 18.3839C16.1183 18.1495 16.25 17.8315 16.25 17.5C16.25 17.195 16.3125 17.0425 16.5763 16.9125L16.685 16.8625C17.661 16.4699 18.4701 15.7499 18.9734 14.8261C19.4768 13.9024 19.6431 12.8322 19.4439 11.7992C19.2447 10.7662 18.6923 9.8347 17.8816 9.16434C17.0708 8.49397 16.052 8.12653 15 8.125Z" fill="#3A4E39"/>
</g>
<defs>
<clipPath id="clip0_2019_5789">
<rect width="30" height="30" fill="white"/>
</clipPath>
</defs>
</svg>
