<svg width="441" height="23" viewBox="0 0 441 23" fill="none" xmlns="http://www.w3.org/2000/svg">
<path d="M184.75 16.38H197.035V17.415H184.75V16.38ZM190.21 13.095H191.44V16.725H190.21V13.095ZM190.18 6.51H191.26V7.56C191.26 10.455 188.485 12.69 185.755 13.26L185.23 12.225C187.615 11.79 190.18 9.795 190.18 7.56V6.51ZM190.405 6.51H191.485V7.56C191.485 9.81 194.065 11.79 196.45 12.225L195.91 13.26C193.18 12.69 190.405 10.455 190.405 7.56V6.51ZM205.794 6.99H208.854V7.98H205.794V6.99ZM205.794 9.435H208.854V10.425H205.794V9.435ZM208.449 5.61H209.694V12.705H208.449V5.61ZM200.964 13.38H209.694V16.575H202.224V18.66H201.009V15.645H208.464V14.355H200.964V13.38ZM201.009 18.015H210.204V18.99H201.009V18.015ZM201.924 5.955H202.914V7.365C202.914 9.825 201.414 11.925 199.179 12.765L198.549 11.805C200.544 11.085 201.924 9.27 201.924 7.365V5.955ZM202.149 5.955H203.139V7.365C203.139 9.18 204.519 10.86 206.454 11.535L205.824 12.495C203.634 11.7 202.149 9.705 202.149 7.365V5.955ZM215.702 16.47H227.987V17.505H215.702V16.47ZM221.192 13.56H222.437V16.905H221.192V13.56ZM217.187 6.615H226.472V10.725H218.462V13.44H217.232V9.72H225.242V7.62H217.187V6.615ZM217.232 12.915H226.787V13.935H217.232V12.915ZM230.821 7.05H239.551V8.055H230.821V7.05ZM229.501 16.155H241.756V17.19H229.501V16.155ZM238.891 7.05H240.106V8.4C240.106 10.14 240.106 12.075 239.596 15L238.351 14.88C238.891 12.105 238.891 10.08 238.891 8.4V7.05ZM253.155 5.625H254.415V15.525H253.155V5.625ZM245.7 17.85H254.82V18.87H245.7V17.85ZM245.7 14.505H246.93V18.195H245.7V14.505ZM247.14 6.555C249.165 6.555 250.665 7.935 250.665 9.9C250.665 11.85 249.165 13.245 247.14 13.245C245.115 13.245 243.6 11.85 243.6 9.9C243.6 7.935 245.115 6.555 247.14 6.555ZM247.14 7.635C245.82 7.635 244.815 8.565 244.815 9.9C244.815 11.22 245.82 12.15 247.14 12.15C248.46 12.15 249.465 11.22 249.465 9.9C249.465 8.565 248.46 7.635 247.14 7.635Z" fill="white"/>
<line x1="267" y1="10.5" x2="441" y2="10.5" stroke="white"/>
<line y1="-0.5" x2="174" y2="-0.5" transform="matrix(1 0 -0.000112059 1 -0.00195312 11)" stroke="white"/>
</svg>
