<svg width="18" height="27" viewBox="0 0 18 27" fill="none" xmlns="http://www.w3.org/2000/svg">
<path d="M17 17.8929C17 22.3815 13.4072 26 9 26C4.59285 26 1 22.3815 1 17.8929C1 16.8622 1.48159 15.2826 2.32122 13.3787C3.14335 11.5145 4.24739 9.47168 5.36306 7.56538C6.4768 5.66238 7.59201 3.91254 8.42956 2.63747C8.63864 2.31917 8.83024 2.03073 9 1.77715C9.16976 2.03073 9.36136 2.31917 9.57044 2.63747C10.408 3.91254 11.5232 5.66238 12.6369 7.56538C13.7526 9.47168 14.8567 11.5145 15.6788 13.3787C16.5184 15.2826 17 16.8622 17 17.8929Z" stroke="#7CB8FE" stroke-width="2"/>
</svg>
